<?xml version="1.0" encoding="UTF-8" standalone="yes"?>
<svg version="1.2" baseProfile="tiny-ps" viewBox="0 0 300 300" xmlns="http://www.w3.org/2000/svg">
  <title>bimi-svg-tiny-12-ps</title>
  <g>
    <g fill="#f7f6f5" transform="matrix(.1 0 0 -.1 0 300)">
      <path d="M0 1500V0h3000v3000H0V1500z"/>
    </g>
    <g fill="#f4f4f2" transform="matrix(.1 0 0 -.1 0 300)">
      <path d="M2443 2975v-14l9 5 8 5-5 10c-9 13-12 11-12-6zm-1243-45c0-5 5-10 11-10h10l-6 10c-3 6-8 10-11 10-2 0-4-4-4-10zm1480 6c0-2 7-7 16-10l15-6-6 10c-6 10-25 14-25 6zm-677-36c1-20 12-26 20-12 3 4-1 13-8 19l-14 13 2-20zm187-14c0-2 7-7 16-10l15-6-6 10c-6 10-25 14-25 6zm-1007-21v-14l9 5 8 5-5 10c-9 13-12 11-12-6zm292-14-5-10 8-5 9-5v14c0 17-3 19-12 6zm441 1-5-8 20-1c23-2 25 3 4 10l-14 6-5-7zm-887-24c0-2-2-11-4-20l-3-18 10-7 11-6-7 11-6 10 12 5 13 5-13 1-13 1 6 10c3 6 4 10 1 10s-6-1-7-2zm841-8-15-10h12c6 0 15 5 18 10 8 12 4 12-15 0zm-345-10-6-10h10c5 0 13 5 16 10l6 10h-10c-5 0-13-4-16-10zm37-1c3-8 2-21-3-30l-8-16h28l-6 10-6 9 11 7 10 6-16 14-15 14 5-14zm758-4c-17-21-8-28 15-11l18 13-10 6-11 7-12-15zm-1225-6c-11-16-1-19 13-3l13 14h-10c-5 0-13-5-16-11zm72 0 13-16-7-6-6-7h11c17 0 15 16-5 31l-18 14 12-16zm246-4c0-8 4-15 9-15 4 0 8 4 8 9 0 6-4 12-8 15l-9 5v-14zm295 8 12-5-18-16c-10-10-12-13-4-8l14 10 6-10c4-6 15-13 25-17l17-6v9c0 6-6 10-14 10h-14l-5 20-5 20-14-1-13-1 13-5zm261-10-14-18 20 15c11 8 22 16 24 17 2 2 0 3-6 3s-17-8-24-17zm-1169-3-15-10h17c9 0 20 5 23 10l6 10h-8c-4 0-15-5-23-10zm695 0-6-10h32l-6 10c-3 6-8 10-10 10s-7-4-10-10zm872-1c7-7 15-10 18-7s-2 9-12 12l-18 7 12-12zm-1470-10c7-7 15-10 18-7s-2 9-12 12l-18 7 12-12zm48 1c11-5 25-9 30-9l10-1-15 10c-8 5-22 9-30 9h-15l20-9zm285-10 25-20 30 2 30 1-30 4c-16 2-35 10-40 16-6 7-17 13-25 15l-15 3 25-21zm770 1c0-5 5-13 10-16l10-6v10c0 5-4 13-10 16l-10 6v-10zm238-2c-20-11-24-29-6-29h11l-6 7-7 6 18 13c20 16 14 18-10 3zm259-9 5-20 17 1 16 1-12 5c-7 2-13 11-13 19s-4 14-9 14h-9l5-20zm-1789 3c7-3 16-2 19 1 4 3-2 6-13 5l-19-1 13-5zm1137-3-6-10h10c6 0 11 5 11 10 0 6-2 10-4 10-3 0-8-4-11-10zm121-2 5-8 10 5c13 9 11 12-6 12h-14l5-9zm399 3c-3-2 4-11 15-18l20-14-6-11-7-11 12 7 12 8-12 15-13 15 15 8 14 9-23-2c-13-1-25-3-27-6zm181-3 5-8 10 5c13 9 11 12-6 12h-14l5-9zm-1186-9v-10l10 6c6 3 10 8 10 11 0 2-4 4-10 4-5 0-10-5-10-11zm499-9c-36-19-54-21-76-7l-13 8v-8c0-5 15-16 34-24l34-16-4 12-5 11 27 13c29 13 48 6 24-9l-15-10h43l6 15 5 15-12-3-12-2 3 13c3 15 5 15-39-8zm721 10c0-5 5-10 10-10 6 0 10 5 10 10 0 6-4 10-10 10-5 0-10-4-10-10zm-1017-9c10-4 18-10 18-14-2-19 0-21 9-7l9 14-12 8c-7 4-19 7-27 7h-15l18-8zm114-11c-7-11-16-18-18-15-3 2-5-5-6-15l-2-20h10c5 0 8 4 7 9-2 5 7 18 20 29l23 20-10 6-10 6-14-20zm253 10c0-5 5-10 11-10h10l-6 10c-3 6-8 10-11 10-2 0-4-4-4-10zm61-16 1-19 5 13c3 7 2 16-1 19-3 4-6-2-5-13zm620 0 1-19 5 13c3 7 2 16-1 19-3 4-6-2-5-13zm230 7-13-8 10-7 10-6 6 15c6 17 6 18-13 6zm49-2v-10l10 6c6 3 10 8 10 11 0 2-4 4-10 4-5 0-10-5-10-11zm-2025-9-6-10h10c6 0 11 5 11 10 0 6-2 10-4 10-3 0-8-4-11-10zm70 0-6-10h10c6 0 11 5 11 10 0 6-2 10-4 10-3 0-8-4-11-10zm141 2-5-8h38l-5 8c-3 4-9 8-14 8s-11-4-14-8zm414 4c0-2 8-10 18-17l17-14-14 18c-13 16-21 21-21 13zm253-2 6-7-10-19-10-19-11 7-11 7 7-11 7-12h-13c-7 0-19-9-25-20l-13-19 17 6 16 6-8-13-8-13 13 8 13 8-6-16-6-16 10-7 11-6 11 11 12 12-19-7-19-7 9 14c4 8 9 19 10 26l2 12-14-6-14-5v22h40l-2 13-3 12 12-2 12-3-6 17-6 16 11-7 12-7-6 15c-3 9-11 16-17 16h-10l6-6zm793-6 5-8 10 5c13 9 11 12-6 12h-14l5-9zm-1500-10 5-8 10 5c13 9 11 12-6 12h-14l5-9zm175-2-12-14 11-7c5-3 10-5 11-3 4 18 7 38 4 38-1 0-8-6-14-14zm329 6c0-7 6-12 13-13 6-1 1-5-13-9l-25-8 21-1c11-1 24-5 30-11l10-10 12 21 13 21-11-7-11-7-20 18-19 17v-11zm649 4c-3-2-6-46-4-46s10 11 18 23l15 24h-14c-8 0-15-1-15-1zm69-12c12-8 22-22 22-30s5-14 10-14c6 0 10 3 10 8-1 14-38 52-51 52h-13l22-16zm37 6-6-10h10c6 0 11 5 11 10 0 6-2 10-4 10-3 0-8-4-11-10zm-1140-9c3-2-3-14-12-25l-18-21 20 15c11 8 26 20 33 27l12 12-19-2c-11-1-18-3-16-6zm856-7 1-19 5 13c3 7 2 16-1 19-3 4-6-2-5-13zm465 4c3-4 9-8 15-8 5 0 9 4 9 8 0 5-7 9-15 9h-14l5-9zm269 2c3-5 8-10 11-10 2 0 4 5 4 10 0 6-5 10-11 10h-10l6-10zm29-12c-44-33-52-42-24-28 14 7 28 18 32 24l7 11 13-13c6-6 19-12 28-11h15l-25 10-25 10 15 9 15 10h-11c-6 0-24-10-40-22zm-1454 2c8-5 20-10 25-10h10l-15 10c-8 5-19 10-25 10h-10l15-10zm607 3c-4-3-22-6-41-5l-35 1-6-18c-8-27 3-47 33-60l27-11-17 13c-10 8-18 17-18 20s8 8 18 10l17 5-27 1-28 1v9c0 13 22 20 57 17l30-2v13c0 15-1 15-10 6zm23 2c0-2 9-9 20-15l20-10-6 15c-5 13-34 22-34 10zm-1624-22-7-18 12 12c7 7 10 15 7 18s-9-2-12-12zm430 1-6-15-11 7-11 6 11-21c7-11 17-21 24-21h12l-15 10-15 10 18 14 18 14-9 6-10 6-6-16zm57-2 19-21-6-10-6-10 8-5 8-5 2 23 1 22-22 13-22 14 18-21zm227 9v-12l-12 7-11 7 8-12 7-13 11 11 11 11-7 7-7 6v-12zm30-2v-10l9 5 9 6 5-12 5-13 1 18 1 17h-15c-8 0-15-5-15-11zm285-6-20-16 18 6 17 6v-12c0-7-6-19-12-26l-13-13 23 13c24 15 24 16 14 41l-7 17-20-16zm241-8-16-25h10c5 0 10 5 10 11 0 5 4 8 8 5l8-5v20c0 24 0 24-20-6zm209 15c-8-13 3-30 18-30h12l-14 9-14 9 7 11c4 6 5 11 2 11s-8-4-11-10zm408-4-6-9 21 5 22 6v-19l10 6c6 4 8 10 5 15-7 11-45 8-52-4zm102-5 2-16 19-4 18-3-12 14c-6 8-10 17-7 20 3 2-1 5-9 5h-14l3-16zm232-7-18-24h11c5 0 10 4 10 8 0 5 10 13 22 19l22 9-15 6-14 5-18-23zm75 14c-17-17-15-24 7-24h20l-9 12-10 11 7 6c3 4 4 7 2 7-3 0-10-5-17-12zm-1732-4c0-1 6-7 14-13l14-12 5 14 5 13h-19c-11 0-19-1-19-2zm510 2c0-2 7-7 16-10l15-6-6 10c-6 10-25 14-25 6zm636-8 5-8-18-1c-10-1-22-1-26 0l-8 1 5-9 6-10-18-13c-10-7-21-23-24-35l-6-22 17-13 16-13-13 16-13 17 18 18c10 10 18 22 18 28s11 16 23 22c13 6 28 16 33 21l10 10h-30l5-9zm914-3c-7-9-10-18-7-21s10 4 17 15c13 25 8 27-10 6zm-1974-4-6-9 20 5c23 6 26 13 6 13-8 0-17-4-20-9zm651-15-29-23 17-6 16-7-6 10-6 10 26 10 26 10-6 10c-8 12-5 14-38-14zm476 5c-13-11-23-25-23-32v-12l24 28 24 28-2-34-2-34-18 1-17 2 3-16 3-15 18-3 17-2v11c0 7 11 24 25 39s25 33 25 40v13l-10-15-10-15-11 18c-13 21-18 21-46-2zm47-27v-15l-10 6c-5 3-10 10-10 16 0 5 5 9 10 9 6 0 10-7 10-16zm251 30 1-19 5 13c3 7 2 16-1 19-3 4-6-2-5-13zm-1133-1c7-3 16-2 19 1 4 3-2 6-13 5l-19-1 13-5zm657-3-6-10h10c6 0 11 5 11 10 0 6-2 10-4 10-3 0-8-4-11-10zm-908-17c6-25 18-30 29-10l7 12-8-7-8-8-13 18-13 17 6-22zm780-3 17-20 8 13 7 12-17 7c-29 11-32 9-15-12zm945 5-13-15h31v15c0 18-2 18-18 0zm144 2c3-10 9-15 12-12s0 11-7 18l-12 12 7-18zm-1896-6c0-6 4-13 10-16l10-6-6 15c-7 18-14 21-14 7zm489-8-14-18 18 14c9 7 17 15 17 17 0 8-8 3-21-13zm71 13c0-2 8-10 18-17l17-14-14 18c-13 16-21 21-21 13zm206-10c3-9 11-16 16-16h10l-4 12c-2 6-10 14-16 16l-12 4 6-16zm281-16-18-30h32l-6 11-7 10 18 20 17 19h-9c-5 0-18-13-27-30zm526 22-12-8 9-14c6-8 10-19 10-23v-8l-10 6-10 6v-30l31-16 30-16-12-15-11-14h8c5 0 15 9 22 20l12 20 19-9c10-6 28-9 39-8l22 1v21l10-15 10-15v11c0 6-8 18-17 25l-17 14 8-12 7-13h-23l4 25 5 25-7 5c-4 3-10-5-13-16l-6-21-23 7-23 7 20-16c23-17 13-21-15-6l-20 10 6-17 6-18-14 16c-13 16-19 19-40 19h-11l18 20 18 20h-22l4 20c4 23 4 22-12 12zm121-87 5-15h-9c-6 0-10 7-10 15s2 15 4 15 6-7 10-15zm93 82-12-9 18 6c9 3 17 3 17 0 0-9-27-33-32-28-3 2-16 7-28 9l-23 4 7-6 6-6-12-16c-7-9-8-13-4-9l9 8 14-12 14-11-3 14-3 14 19-2 19-1 18 21 18 22 1-11v-11h33l-17 12c-8 7-14 14-11 16 8 9-36 5-48-4zm68 3 6-10 10 5c14 9 11 15-7 15h-15l6-10zm-1912-22-1-23 5 13 5 13 14-12 15-12 12 12 12 12-17-6-18-7-6 16c-9 23-20 20-21-6zm164 11c7-7 15-10 18-7s-2 9-12 12l-18 7 12-12zm553-4 12-15h-12c-8 0-11-3-7-6 3-3 10-3 16 0l10 7-6 14c-3 8-10 15-15 15h-10l12-15zm280 1c0-8 4-17 8-20l8-5v20c0 10-4 19-8 19s-8-6-8-14zm-1479-12 1-19 5 13c3 7 2 16-1 19-3 4-6-2-5-13zm939 5v-10l10 6c6 3 10 8 10 11 0 2-4 4-10 4-5 0-10-5-10-11zm832 2c-7-4-12-13-10-18 3-11-1-13-24-13h-13l15 10c21 13 3 12-22-1l-21-11 24-19 24-19h-15l-15-1 21-9 20-8 26 5 27 5 5 14 5 14h-9c-6 0-10-4-10-10v-10h-48l-12 15-12 15h9c5 0 13-3 17-7 3-4 12-8 19-9l13-2-1 34v34s-6-4-13-9zm48-1c0-5-5-9-11-7-6 1-14-4-17-12l-5-14 12 7 11 7v-10c0-23 15-10 16 14 1 14 0 25-2 25s-4-4-4-10zm235 0-6-10h8c4 0 15 5 23 10l15 10h-17c-9 0-20-4-23-10zm-1326-11-14-9 15-1c8-1 18-1 23 0 4 0 7-3 7-9v-9l17 6 16 6-6-10-6-10h29l-16 18c-19 21-48 29-65 18zm596 1-20-9h13c7-1 20-8 28-16l15-14 14 5 15 6-7 11-7 11-4-12-3-11-14 12c-7 7-11 15-8 20 5 8 4 8-22-3zm527-6c10-10 20-16 22-13 3 3-5 11-17 18l-22 13 17-18zm90 8c1-4-3-17-10-28l-11-21 6-7c3-3 10-6 14-6h8l-6 16-6 17 17 12 17 13-16 5-15 6 2-7zm-1862-16c0-8 4-17 8-20l8-5v20c0 10-4 19-8 19s-8-6-8-14zm351-2 1-19 5 13c3 7 2 16-1 19-3 4-6-2-5-13zm219 12c0-2 7-7 16-10l15-6-6 10c-6 10-25 14-25 6zm-313-13c-11-11-8-21 9-27l17-6-11 13-12 14 7 6c3 4 4 7 1 7-2 0-8-3-11-7zm223-2v-12l-12 7-11 7 8-12 7-13 11 11 11 11-7 7-7 6v-12zm327-4-6-17-12 2c-6 2-14-3-16-11l-5-13 23 7c31 10 31 10 27 32l-4 18-7-18zm203 3-14-9 16-6c9-4 24-8 34-9 9-1 23-11 30-21l14-19v32l-15 6-15 5 6 18 6 18-9-10c-4-5-16-11-27-13l-18-3 7 10c8 13 5 14-15 1zm70 6c0-4 9-16 19-28l20-20-6-15-6-15 13-8 13-8-22-12-23-12-12 18-13 17-16-6-16-6-11 14-12 15-9-6-9-5v22l-12-7-11-7 6 16 6 16-14-6-15-5 7-12 7-11-16 13-16 13-4-10-3-10-50-5c-27-3-51-6-52-7-2-1-6-2-10-3-5-1-14-5-20-9l-13-8v8c0 5 6 15 13 22l12 12-17-6c-18-7-24-26-11-38l6-7 13 11 12 10 7-11 6-10h-8c-5 0-18-7-29-15l-19-15 25 9c14 4 31 6 39 3l14-5-7 12-7 11h59l5 13 5 14h45l45 1 5-20 5-19-15-6-15-6 14-8 13-9h-40l14-9 13-8-10-7-11-7 6-16 6-16-13 8-13 8-13-17-12-17-6 9-6 10 15 12 15 12v22c0 12 7 31 15 43l15 21-23 4c-28 5-47 0-47-13v-10l12 7 11 7-7-12-7-11-10 6-10 6-15-18-16-19 6 18 6 17-21-10-20-11 6-9 5-9-10-6-11-7 10-12c6-7 9-15 6-18s2-11 11-19l17-14-8 25-7 25 13-12c12-12 19-31 21-60 1-7 5-13 10-13h8l-5 28-6 27 15-25 15-25 1 13v12h35l-14-9-14-9 8-13 8-12-18 6-18 7-13-17-13-18-1 17c0 9-5 20-10 23l-10 6-28-19c-15-10-37-21-49-25l-23-5v28l23-5 22-5 24 20 23 20-6 15-5 15h-41v21l12-7 11-7-6 18-7 18 10 12 10 12-30 1c-16 0-29-2-29-6 1-4 1-20 0-35l-1-28-10 6-10 6v-23l-12 5-13 4 3 13 3 13-21-6-20-5-6 10-6 10-29-28c-16-15-29-24-29-20v8l-13-10-13-11-21 14-21 15-6-16c-8-20-8-24 2-23 4 1 16 1 27 0l20-1-15-10-14-9-6 7c-3 4-13 8-24 10l-18 3 8-13 7-13-8 7-8 8-13-11-13-11-16 16c-9 9-25 16-35 16s-22 5-26 12l-7 11 11-7 11-6 6 10c9 15 25 12 25-4v-15l20-6 21-7 14 12c8 6 13 17 11 23-1 7-1 9 1 5 5-8 53 40 53 53 0 4-6 10-12 12-7 3 1 4 17 2l30-3 18 16 17 15v-11c0-7 5-12 12-12h11l-7 7-7 8 48 11 48 12h-40c-22 0-44 0-50 2-5 1-13 1-17 0-5-1-18-3-30-4l-23-1 1-18c2-20-1-21-27-7l-19 11v14c0 8-5 15-11 15h-10l6-10 6-10h-21v42l23-5 22-6 15 9 15 10h-55l-1 18-1 17-4-11-5-12-19 5c-11 3-20 10-20 15v9l-10-6-9-6-13 21c-7 11-16 20-21 20h-8l6-10 6-10-15-6c-9-3-16-10-16-15v-9l21 12 22 13 4-12c3-7 12-13 21-13h17l-28-19-29-19 11-6c6-4 11-14 11-23v-15l-15 12-15 12v48l-23-11-24-11v-26l15 6 15 5-7-11-7-12 17 7 17 6-8-13-8-13 13 8 13 8-6-17c-4-10-7-20-7-22 0-3-15 7-34 21l-33 25-24-9-24-10h16c9-1 22-8 29-16 14-17 7-19-20-5l-20 10 6-15c4-9 9-13 12-11 3 3 11 1 19-5l13-12-10-13-11-12 23 4 23 5-21-10c-12-5-25-15-29-21l-8-12 24 6 24 7-18-11-17-11 5-9 5-9-11-7-12-7 7 11 7 12h-10c-11 0-9 19 3 39l9 14-11-7c-7-4-21-9-32-11l-21-4 6 9 6 9-25 22-25 22 5 9 5 8h-15c-8 0-18-5-22-11l-6-11-19 5-19 5v-8c0-5 6-11 13-13 6-3-3-3-22 0l-34 6 5-14c3-8 9-14 14-14s15-4 22-8l12-8-6-10-5-9-10 5-9 6v-22l-10 6c-6 4-8 10-5 15l5 9-18 6-19 5-18-6-18-7 7 14 7 14-13-16-14-17-19 14c-10 8-15 14-9 14 5 0 2 4-6 10l-14 9-13-11c-7-6-13-15-13-21v-11l15 20 14 19 1-16c0-8-5-20-10-25l-11-11 30 5 29 4 6-11c4-6 13-11 19-11h12l-15 11-15 10 20-4 20-3-3-13-2-12 20 11 20 11v-23l14 5 15 6 3-16 3-16 26 38 27 37 6-10 6-11-9-5-9-6 5-20 5-20 13 17 13 18-11 7-12 8h13c7 0 22-5 33-10l19-11v-33l-12 12c-7 7-18 12-25 12h-13v-28l-21-5-21-6 6-9 5-9h-14c-8 0-15 4-15 9 0 4 5 8 12 8 6 0 9 2 6 5-5 5-17 8-75 21l-22 4 4-20 4-20h-26l1-37 1-38-15 4c-8 1-35 3-60 3h-45l15 5c8 4 18 11 22 17l8 11v-25l27 17 28 18-14-18-13-17h8c5 0 15 4 22 9l13 8-13 10-13 11-42-3-42-2-16-17-17-16-10 6-11 7 7-11 7-12h-10c-19 0-12 22 9 27 11 3 20 10 20 15v9l-21-6-22-7 7 11 7 11-15 6-16 6 7 11 6 10-11-7-12-7v29l16 6c23 9 24 8 18-11l-6-18 9 10c4 6 15 11 24 11l17 1-5-28-4-29h20l-5 14-5 14 37-13 38-13 28 22c27 21 31 37 10 44l-12 4v-16c0-8-4-17-9-20l-9-6-13 17-14 17 14-9 14-8-6 17c-4 10-7 20-7 22s-4 4-10 4c-5 0-9-6-7-12l2-13-12 2-13 3-1-23-1-22-9 33-10 32h-20l5-9 6-9-14-5-14-6-5 21-6 21-17-17-17-17-25 6-24 6 16-17 17-16-12-14c-15-18-23-18-15 1l5 15h-8c-4 0-13 10-20 23l-12 22 6-19 6-19-13-9-13-8h38l-6-6-6-7 10-18 10-19h30l-5-8c-6-10 11-38 19-31 3 4 1 18-5 33l-10 27-12-7-11-7 7 11c4 7 14 12 22 12h14v-15c0-8 5-15 10-15 6 0 10-5 10-11v-10l-12 7-11 7 6-10 7-11-11-31c-6-18-14-30-17-27s-11 1-17-4l-12-10-25 19-25 20-9-9-10-10-12 21-13 21 23-7 23-6-17 14c-18 14-25 33-10 23l9-5v14c0 8-3 15-6 16-3 0-15 2-26 4l-20 4 16-12 16-12-5-13-4-13-15 18-14 18 11-22 11-23-8-1c-4-1-10-1-13-1s-6-8-6-18 3-18 6-18c19 2 28-4 33-22 5-21 27-28 27-9v10l-10-6-10-6v34l7-6 6-7 12 10 12 10 22-31 22-30-11-14-12-15-18 3c-10 2-25 9-33 15l-15 13-5-13-4-13v28c0 15-4 31-7 35l-7 6-8-13-8-13-8 29c-4 15-9 36-11 47-2 10-6 21-10 25l-7 6 6-17 6-18h-30l6-10 6-10 12 7 12 6-16-19c-17-20-22-54-7-54 4 0 8-6 8-13v-13l-30-11-30-11v7c0 4-7 8-15 8s-15-5-15-10v-9l-20 5-20 5v-20l-15 5-14 6-7-11-7-11 11 7 10 6 16-16c20-19 20-31 1-31H70v14c0 7-4 13-8 13-5 0-9-7-9-15s4-15 9-15c4 0 8-4 8-10v-10H19l6-9 5-9 35 4 35 4v-10c0-5 7-10 16-10h15l-6-10-6-10-20 11c-12 6-23 8-27 5-3-3 1-6 9-6h14l-15-11-15-11 21 5 21 4-5-23c-2-13-8-24-13-24s-8-6-6-12l2-13-25 3-25 3 30-16c44-24 44-27-2-21l-41 5-6-15-6-15 9 5 9 6 6-15 5-15h49l-3-17c-1-10 2-24 8-31l10-12-7-7-6-6v11c0 7-5 12-11 12H69l7-12 8-13-17 14-17 13v-13c0-8 5-21 10-29l10-15v29l11-11 12-12 23 16 24 15-7 11-6 10 12-7 12-8-12-14-12-14 17-19 17-19-12-8-12-7 6 10 6 9-20 17-19 17v-15c0-16-16-20-24-7-6 10-42 9-53-2l-8-8 18-13 18-13-20-7-20-6 6-16 6-16-19 7-19 7 12-12c6-6 10-17 9-23-2-6-1-8 1-5s17 4 35 3c17-1 41 2 52 7l21 9-25-3-25-3-18 16-17 17 32-1 33-1 1 13c1 6 2 18 3 25l1 12 9-15c6-8 8-17 5-21-2-4 6-9 18-12l21-6-13-15-12-16 8-1c5-1 12-1 17 0 4 0 7-3 7-9 0-13-17-13-25-1l-5 10-47-14c-26-8-50-12-54-9l-8 4 2-20c1-22 13-27 19-8l4 12 7-17 6-17H55c-19 0-18-8 1-40l15-25-6 25-6 25 9-13 9-13 19 8 19 7-27-25-28-24 6-22 6-23 12 7 11 7-13-16-13-16 16-16 16-16H87c-8 0-19 6-26 13l-11 13 12 12 12 12H30v19l15-5 15-6v11c0 6-5 11-11 11H38l11 13 11 14-7 6c-3 4-18 7-32 6l-26-1 25-7 25-7-20-12-20-11 12-1h11l-5-20-5-20h19l-2-20c-1-11-5-23-10-27l-8-8 7 12 6 12-12 7-13 7 7-8 8-8-12-16c-7-9-9-13-4-9l9 7 18-9 18-10 6 11 7 10 24-15c13-9 30-16 39-16h16l-11 19-10 20 10 6 10 6-1-8c-1-4-1-15 0-23l1-15 10 15 10 15v-26l13 7 12 8-12-15-12-15-36-2-35-3v11c0 5-5 10-10 10H69l10-17 9-17-9-23-8-22 17-11 17-12-18 6-17 5v-9c0-6-1-13-2-17-1-5 11-11 28-15l29-7-42 3-41 4-11-11-11-11v28l-12-12-12-12 8-7 7-7 20 12 20 13-3-18-3-18h40l-5-10c-3-6-7-9-10-8s-13 5-24 9l-18 7 6-21 7-20-11-7c-6-3-8-10-5-14 2-5 0-22-4-39l-9-31 13 5 14 6-4 18-3 18 21-6 21-5-19-7-19-7 14-8 13-8-21-8-20-8 6-23 5-23-16 14-17 13v-11c0-6 5-11 11-11h11l-12-15c-7-9-10-18-7-21s10 4 17 15l11 21 20-10 20-11-6-10c-4-5-15-9-26-9-26 0-24-16 3-23l22-6 8 12 8 12v-13c0-7-6-20-14-28l-14-14-4 12c-2 6-12 12-21 14l-17 2 6-9 5-9 10 5 9 6v-31h41l-5-9-6-9-23 5-22 5 20-17 20-17-17 6-18 5-1-12c0-7-2-23-3-36l-3-24 13 18 13 18-6 10-6 9 23-7 23-7-7 10-6 11 9 6 10 6-4-21-4-20h15c15 0 19-12 7-23l-6-7-13 11-13 11-11-7-10-6 5-10 6-9H19l15-15c8-8 22-15 30-15 19 0 20-11 3-29l-12-12 26 6 27 7 6-10 6-10-20 5-20 5v-31l20 4 20 4 10-20 11-20 9 6 10 6-6-15c-6-16-25-23-22-8 0 4-2 14-6 22l-6 15-28-1c-25-1-80-23-58-24h8l-11-14-12-14 9-6 10-6 6 25 6 25 33-1 32-1-28-10-28-10 20-15 21-14-5-9-6-9 22-11 21-12-7 22-7 22 13-4c7-2 13-12 15-21l2-16-14-12-14-11v11c0 6-4 11-8 11s-8-9-8-19v-20l8 5c4 3 12-4 17-15 15-26 14-34-3-28l-14 5-11-11-11-11v24H73l-18 1 18 13c9 7 17 17 17 21 0 5-9 0-20-10l-20-18 11-14 11-13h-9c-5 0-14 5-21 12l-12 12-13-13-12-12 10 1c6 2 16 2 24 1l13-1-6-15-5-15h14c8 0 15 4 15 8v9l33-5 32-4 17-21 17-22 8 8 7 8-14 9-15 10h26l-8 13c-4 6-8 17-9 23l-2 12 21-6 20-5-7 11c-4 7-15 12-26 12h-18l-6 16-6 15 13-8c6-4 20-6 30-5l17 3 6-15c3-9 10-16 15-16h8l-5 13-5 14 33-6 33-5-22-4-22-3 6-15c3-8 12-14 20-14h14l-5 9-6 9 20 5 20 5-6-9c-3-5-2-14 1-19l7-11 14 12 14 11v-15c0-9 8-22 19-29 17-12 21-18 21-35 0-5 5-1 10 7l10 15v-10c0-5-5-17-10-25l-10-15v25l-12-2-13-3 3 13c2 13-10 16-22 4-8-7-56-11-56-4 0 2 6 10 14 18l15 14 9-16 9-16 6 16 7 17-10-6-9-6-13 21c-7 11-16 20-21 20-4 0-6-4-3-8l5-9-22 2-22 2-3 15-3 16-20-5c-10-3-19-9-19-14v-8l-17 6-18 7 14-17 13-17 12 7 11 7-15-19-15-19 16 6 16 6 14-9 14-8 6 16 6 17 5-16 6-16-24-11-24-10 3 12 2 12-15-4c-8-3-30-4-47-4l-33 2v-20l10 6 10 6-6-15-6-16-8 5c-5 3-12 0-16-6l-7-12 11 7 12 7v-10c0-5-5-13-10-16l-10-6-6 15-6 16-9-6-9-5v28l23 11 22 11h-16c-9 1-22-6-29-14-16-19-30-19-45 2l-12 16-8-13-8-13 12 7 12 8-2-13c-3-26 1-37 17-43l17-6-14 17-14 17 34-20c19-10 37-26 39-34l5-15-16 14-17 13v-8c0-5 4-15 9-23l8-13 7 11c4 6 16 11 27 11s27 6 35 14l14 14 17-3c10-2 22-4 26-4l8-1-7-11-7-11-8 13-9 14-1-15c0-8-2-23-4-32l-3-18h9c5 0 9 5 9 11s8 22 19 35l18 23 7-6 6-6v25l14-5 14-6 5 13 5 14-11 11-11 11h62l7-18 6-17-12 13c-7 6-17 12-21 12-11 0-10-32 2-50l9-14 7 7 7 7-14 17-14 18 17-14c25-19 22-28-12-46l-31-16 6-8 5-9-18 5-19 4v-15c0-8 6-17 13-20l13-5 27 32 26 32-5-22-5-23 10-7 11-6-7 11-7 12h10c5 0 15-8 20-17l10-18 1 18c0 18 15 23 24 9l5-8-19-14-18-13 5-16 5-16-10 14-10 13-4-13-4-13-8 12-7 12h10c6 0 11 5 11 10 0 6-7 10-15 10s-15 5-15 10c0 6-4 10-10 10h-9l4-31 4-31-14 6-14 5-7-11-7-11 11 7 11 6 7-11 7-12-11 7-12 7v-25l-15 21-16 22-13-5-14-5-15 21-14 21-6-22-6-21-10 7-11 6v-10c0-5 7-12 15-14l15-5-17 2-18 1-3 29-4 28 11 11c6 6 11 15 11 20v8l-10-6-10-6v8c0 5 8 20 17 33l17 25-20-18c-12-9-29-17-40-18h-19l19-8 20-8-15-5c-8-3-29-1-47 4l-33 9 5 7c3 5 0 14-6 22l-10 15 6-17 5-18-17-1c-9-1-20-1-23-1-3 1-6-5-6-13v-14l16 8c19 10 41 4 41-11v-9l-22 5-23 6 22-11 22-12-2-18c-2-10-6-22-10-25l-7-7 17-20 18-20-12 7-13 7v-21h31l-3 27-3 28 15 12 15 12-20-3c-11-2-14-1-7 1 11 4 16 17 13 36l-1 8 9-6 10-6-6-14-5-15h31l-5 17-6 18 11-15 10-15-4-38-3-38 15-12c8-7 23-19 33-29 25-22 28-16 22 37l-5 45h25l-7-30-7-30h23l-11-19c-14-26-13-31 6-31h16l-6-16c-3-9-6-17-6-20 0-8-36 11-43 23l-9 14-13-11-14-12-11 7-10 6 7 12 7 12-17-14-17-13-15 12c-19 16-19 34 0 50l15 12V73l23 1c12 1 28-2 35-7l12-9v11c0 6-6 12-12 12-7 1-20 2-28 3l-15 1 3 17 3 18h-14c-8 0-20-7-27-15L88 90l-9 6-9 5 10-25 9-25-8-6-9-5-6 15c-3 8-10 15-16 15H39l6-10 6-10-17 7-18 7 23 9 22 10-3 15c-2 9-8 17-15 19l-11 4 5-20 5-21-13-1c-8-1-18-1-23 0l-9 2L8 67l12-14-7-7-7-7 15 6 16 6 24-21 24-20-26 11-27 11-18-11-19-11 27 4 28 5V0h40v28l1 27 15-27c16-30 30-36 37-15l4 12 17-14 16-14-6 19-6 19 14-16 13-15 40 1h40l23 13 22 13V21c0-5-6-12-12-14-7-3 11-5 40-5l52 1 6 8 5 9-18-6-18-6 14 10 14 10 14-5 13-5-6-9-5-9 33 1h33l-22 9-23 9v48l-24-4-24-5-7 11-6 11 8-1c4-1 19-1 33 0l25 2-15 12c-8 7-22 21-30 32l-15 20 16-12 16-13 21 19 22 18-8 9c-4 4 0 3 9-4 9-6 18-11 20-9 12 7-22-20-38-29l-18-12 25-27c14-16 19-25 13-21l-13 7V24l20-1 20-2v9c0 5-8 11-17 14-10 2-2 2 18-1l37-5 6 11c4 6 12 11 18 11h10l-23-25c-13-13-28-25-34-25h-10l15 11 15 11-14-4c-8-3-17-10-19-16l-4-12 100 2 100 3-5 10-6 10 14-13 13-12h58l-5 14-6 15 12 5 12 6-24-4-24-5 11 11 11 11 15-6 14-6-5-20-5-21h21c12 0 32 5 43 11l20 11-5-10-6-9 156-1 157-2 8 13 8 12V0h160l20 20c20 20 27 36 12 26l-9-5v29l12-10 12-10 8 8c4 4 2-3-4-15-6-13-16-23-21-23-6 0-10-4-10-10V0h66l12 12 12 12V2l780-1h780v89l-10 1c-20 3-25 5-45 17l-20 12 22-3c12-2 26-6 29-10 15-15 20-5 21 38l2 45-10-6-9-5 5-10 6-9h-22l6 21 7 22-12-8-13-8 7 11c4 7 14 12 23 12h15l-6 20c-3 11-9 30-12 42l-6 23 10-13 9-13 1 53c0 29-2 47-4 41l-6-13-16 1-17 1 13 5 12 5-6 9-5 9h27l1 20 2 20h-24l10 8c6 4 10 18 11 32l1 24-13 14c-17 16-18 32-3 32h10l-6-9c-3-5-2-12 3-15l8-5 2 60 2 60-10-6-10-6v10c0 6 4 11 10 11h10l-2 83-1 82-11 7-11 8h25v56l-12 13-13 14 11-6 11-7 2 336 1 335-10-6-10-6v10c0 6 4 11 9 11h9v128l-1 127-8 23-9 22h8c4 0 8 9 9 20l2 20h-21l12 15 12 15-11 13-11 14 7 7c4 4 8 24 9 46l1 40-7-5c-4-3-13 2-19 9l-12 14 12 8 12 7-8-13-8-13 13 5 13 4 4 22 3 22h-10c-6 0-10 5-10 11v10l8-5 8-5v58l-12-10-13-10-20 11c-28 14-26 18 7 14l27-3-16 12-17 13 1 32 2 32 14-15 14-14-12-14-12-15 15-5 15-6 6 9 6 10h-20l5 14 5 14-10 6-10 7 5 13 5 14-18 4-18 4-13-21-12-20 5 30 6 30-15-25-15-25-1 13v12h-14c-7 0-18 6-25 13l-11 13 12 12 12 12h-11c-7 0-15-5-19-11l-7-12-10 18-9 17-9-13-9-14v34l-16-6-16-6-8 12c-6 11-24 17-53 20l-8 1 6 11 7 10 14-5 14-5 33 34c19 19 39 35 46 35h11l-1 18-1 17-4-12-5-12-16 6-16 6 7-11 7-12-18 6-18 6 13-10 14-9-17-6-16-7 6 10c9 15-5 12-21-5l-15-15h23l23-1-19-10-18-11-9 13c-4 8-11 31-14 51l-7 38h-13c-8 0-17-4-20-10l-6-10h29l6-16c8-22 8-24-6-21l-13 2 3-18 3-18-19 12-20 13 4 25 4 26-10-15-10-15v29c0 32-8 31-15-2l-4-22 17-10 17-9-22-1h-22l-4 23-4 22-2-27-1-28h-21l3 18 3 17-15 18c-8 9-19 17-24 17h-9l18-20c22-24 14-38-8-15-9 8-22 15-29 15h-13l12 8 13 8-14 19-14 19 5 12 4 12-10 7-11 6v-33l-15 12-15 13-7-7-6-6h27l-19-14-20-14 28 5 27 5v-24l-14 5-15 6-11-14-11-13 12-8 12-7-7 11-6 11 10 6 10 6v-22l13 6c6 4 3-1-7-9-27-22-39-20-66 9l-24 25-9-15-8-15-10 5-9 6 6-15 6-16h-11c-6 0-11-5-11-11v-10l10 6 10 6-6-15-6-16-17 1-16 1 13 5 12 5-6 9-6 10-14-12-15-12 3 14 3 14-22-2-23-3v21l10-6 10-6v10c0 14-44 24-68 16l-20-6-7 11-7 11-13-11-13-11-7 11-6 10-10-5c-15-10-10-19 17-32l26-12-6 14-5 14 9 6 10 6v-31h15c8 0 15 4 15 9v9h49l-10-19-10-19h33l-11-14-11-13 6-16 6-16-7-11-7-11-14 18-14 18 7-20c3-11 11-23 17-27l10-7 13 11 13 11-6 21-7 21 17-14c9-7 16-14 16-16 0-9-49-53-54-48-3 4-6 1-6-6v-12l-10 6c-6 4-8 10-5 15s0 21-6 37l-11 28-5-12-5-13-15 15c-8 8-22 15-31 15h-16l32-27 32-28-11-15-11-15 5 15 4 15-21 18-21 18-3-10-3-10-16 6-15 6-9-14-8-14-22 22-22 21 41-4 41-4-5 15-6 15h-39l6-10 6-10h-21v32l-17-13-16-14 13 21 13 21 17-4 18-5 6 11c4 6 13 11 19 11h12l-15-10c-18-11-10-19 26-26 16-3 34-10 40-15l12-10 6 10 7 10 14-6 15-5v11c0 6-4 11-10 11h-9l6 16 6 15-29-3c-16-2-39-9-51-16l-21-12 4 18 5 17-22 13-21 13 6-9 6-10-14-11-13-11 2 23c2 14-1 30-6 38l-8 14-13-14-13-14 13 7 12 7v-10c0-6-7-11-15-11s-15 5-15 11v10l-10-6c-5-3-10-11-10-16v-10l10 6 10 6v-9c0-5-6-15-14-21l-13-11-18 7-18 6 8-14 9-14-17 14c-9 7-17 10-17 6s-7-2-15 5l-15 12v-32l25-6c14-3 31-4 39-1l15 6-8-21c-4-12-14-24-22-26l-14-4 13 10 14 9-18 7-17 7-8-12-7-12-13 8-12 8 6-16 6-17h-41l12 15 12 15h-13l-14 1 18 10 18 11-5 34-6 34h21l-5-9-6-9 15-6 15-5v7c0 5-6 16-12 25l-13 17-29 2-28 3 21 13c12 8 21 20 21 27v12h-15c-18 0-20-17-2-17l12-1-18-10-19-11-19 5-19 5-17-16c-9-10-24-17-32-17h-16l4-45c1-25 5-48 7-52s-1-10-7-14l-12-7-12 16c-7 10-15 17-19 17h-7l7-12 7-11-13 8-13 8 6-16 6-16-12-7-12-7 7 8 8 8-11 14c-6 7-16 13-21 13h-9l6-10 6-10-8 1c-20 3-30-2-30-16 0-18 17-20 17-2l1 12 13-17 13-17 26 5 27 4v-10c0-5-3-9-7-9-5 1-12 1-18 0l-10-1 15-10 15-10h-12c-6 0-15 5-18 10-3 6-11 10-17 10s-9-3-5-6c3-3 1-12-6-18l-11-12-23 10c-12 6-23 15-23 19v8l21-12 22-11 8 13c11 19 3 27-26 24l-25-3-11 20-11 20 11-6 10-7 7 26c3 14 10 25 16 25h9l-6 9-5 10 11 6 10 7 6-21 5-21 9 6 9 5v-10c0-6 5-11 12-11h11l-17 19-17 19 10 7 11 6v-10c0-6 5-11 11-11h11l-5 13c-2 6 0 20 5 30l9 17h-15c-8 0-21-3-30-6l-16-6 5-8c3-5 2-11-3-14l-9-5-1 12c-2 24-8 47-15 53l-7 7 13 15 12 16-13-8-13-8-14 12c-8 7-15 9-15 6zm276-73 29-27-18-4-17-4 6-9 5-9 10 5 9 6-6-15-6-16-9 6-9 5-1-18c-1-10-1-21-1-24 2-10-30-34-60-47l-27-11-7 11-7 11 11-7 12-7v8c0 5 10 9 21 10 12 1 26 6 32 12l10 10h-19c-10 1-27 2-37 3l-17 1 17 20 18 20-12-7-13-7v22l-8-5-8-5v50l13-5c7-3 15-1 18 4 3 4 13 7 22 6l18-3 1-14c0-8 2-20 2-27l2-13 11 6 10 7-5 15-6 16 12 14 12 15-35-5-34-6 18 14 18 13-18 5-18 5 16 1 16 1 29-27zm-66 8c0-5-7-12-16-15l-17-6 13 15c14 17 20 19 20 6zm690-7v-15l-10 6-10 6 5 10c9 14 15 11 15-7zm-1472-24-2-30h-18l6 16 6 15-10-6c-6-3-10-13-10-21v-14h49l-5-14-5-14 10-7 11-6v13l1 13 10-18c6-10 8-21 5-24-3-4-6-1-6 6v12l-9-6-10-5-6 10c-3 5-13 10-22 10h-15l6-16 6-15-9 6c-5 3-11 2-14-2-2-5-2-2-1 5l3 12h-16c-9 0-14-3-10-6 8-8-18-34-35-34h-13l15 10c15 9 16 13 19 48l1 17 9-14 10-15 5 25c3 13 7 33 8 44 3 20 16 35 31 35h7l-2-30zm542-5c16 1 39-23 40-41v-11h-15c-8 0-12 3-10 7s-3 16-11 26c-9 10-12 13-8 5l7-14-14 9c-8 5-18 9-23 9s-10 8-12 18l-2 19 16-14c9-8 24-14 32-13zm832 0c3 3 11-2 19-12l14-17-17 7c-10 4-26 10-35 14l-18 7 15-20 15-19-18 14-17 14 10 12c5 6 9 14 7 16-1 2 3-1 9-8s13-10 16-8zm-1005 9c-3-3-12-4-19-1l-13 5 19 1c11 1 17-2 13-5zm663-10c0-3-6-12-14-19-17-17-30-7-15 12 12 13 29 18 29 7zm440-5v-10l9 6 10 5 3-22 3-23 21-1c12-1 26-4 33-8l11-7v26l9-14 9-13 7 12 8 12 13-38c8-22 14-43 14-48v-9l-7 7c-5 4-8 13-8 19 0 5-6 12-12 15l-13 4v-22h-31l6 10c4 6 4 18 1 27l-6 15-15-12-15-13 12-16 13-16-21 18-21 18-13-16-12-15-22 1-21 1 20 5c23 6 57 38 48 46-8 8-34-4-28-13 3-4-2-10-10-14-20-7-19 3 2 26l17 19-27-6-27-7v23l-10-6-11-7 10-12 10-12-7-11-8-12-14 9-15 10 15 1h15l-20 9c-11 5-26 9-32 9l-13 1v-32l-15 12-15 12v-23l-22 3c-13 2-26 7-29 11s-16 9-27 10c-12 1-22 4-22 8 0 10 50 8 56-3l6-9 21 14 22 13 38-2 37-2 5 9 6 8 37-4 37-5-15 9c-8 5-18 7-22 5-10-6-11 10-1 19 10 10 23 8 23-4zm-1592-42 21-22-8-14-8-13-7 11-7 11h13l13 1-28 24c-15 14-24 25-19 25s18-10 30-23zm529 5-18-4 17-12 17-13-36 1c-20 1-40 6-44 10l-8 9 17-6 16-6 5 19 5 19 23-7 24-6-18-4zm130 2 3-9-25-1-25-2v8c0 19 41 22 47 4zm-427-4c0-5-2-10-4-10-3 0-8 5-11 10l-6 10h10c6 0 11-4 11-10zm180-26v-15l-10 6-10 6 5 10c9 14 15 11 15-7zm1335 6-6-10h13c8 0 19 5 25 11l12 12-3-18-3-18-21-3-21-4-6 10c-6 10 1 30 11 30 3 0 2-4-1-10zm-1887-38-13-16 20 8 20 7-13-13-13-13-15 19c-8 11-14 15-14 10 0-6-7-19-15-30l-15-19 10 28c5 15 15 34 22 41l13 14 13-10 12-11-12-15zm812 33c0-2-9-9-20-15l-20-11v27l20 1c11 1 20 0 20-2zm452-22c10-9 18-20 18-25 0-11-22-6-39 10l-14 13-8-13-9-13v11c0 10 20 34 29 34 2 0 13-7 23-17zm-257-2 5-10-19 2-20 1 5 8c7 11 22 10 29-1zm555-17c0-2-7-4-15-4s-15 4-15 10v9l15-5c8-4 15-8 15-10zm25 7-5-10 22-15 22-16h-39l15-11 15-11-15 5-15 5 3 12c2 7-2 16-9 20l-12 8 7 11c4 6 9 11 12 11s3-4-1-9zm324-20c-15-5-22 6-14 19l8 12 8-13 8-14-10-4zm-1194 1c-3-3-11 0-18 7l-12 12 18-7c10-3 15-9 12-12zm-265-2 15-10h-56l6 10c8 12 16 12 35 0zm747 3-7-6 17-19 16-18h-10c-6 0-13 7-17 15-3 8-10 15-16 15h-11l11-19 10-19-18 3c-9 2-20 4-25 4l-7 1 12 20c7 11 19 21 28 24 8 2 17 4 19 5 2 0 1-2-2-6zm447-5-5-7-14 6c-21 7-19 12 4 10l20-1-5-8zm-1764-10c0-4-4-8-9-8-6 0-12 4-15 8l-5 9h14c8 0 15-4 15-9zm640 9c0-2-13-13-29-25l-29-21-13 15-12 14 16-6 16-6 23 16c23 16 28 19 28 13zm43-11 6-14-20-5-19-5v9c0 5 5 9 11 9h10l-6 10-6 10h9c6 0 12-6 15-14zm494 7-7-6 13-16 12-16-17 14-18 13 6 9c3 5 8 9 11 9 4 0 3-3 0-7zm243-8c-15-17-40-20-40-4v11l15-5 14-6 6 9c4 6 9 10 12 10s0-7-7-15zm45 5 6-10h-10c-6 0-11 5-11 10 0 6 2 10 4 10 3 0 8-4 11-10zm172-1-17-10 6-11 7-11-12 7-12 8 12 14c6 8 17 14 23 14l11-1-18-10zm243-7c-8-3-18-10-22-16l-7-11 1 21 2 21 20-5 20-6-14-4zm200 3 12-15-23 1-24 1 14 5 13 5-13 9-14 9h11c6 0 17-7 24-15zm-1180-10v-14l-16 6-16 6 14 8c17 11 18 11 18-6zm230-13c3-2-2-3-10-2s-24 1-35 0l-20-2 25-8 25-8-21-1c-11-1-24 2-27 6l-7 6 16 19 17 18 16-12c9-7 18-14 21-16zm233 13c-3-9-8-14-10-11-3 3-2 9 2 15 9 16 15 13 8-4zm673-13v-29h-13c-7 0-13 4-13 9v9l-12-7-11-7 8 13 8 12-14 10-14 10 16-5 16-5 14 9c8 5 14 9 15 9v-28zm-347-26-1-11-5 13-5 12-10-6-11-7 7 11 7 12h-32l6 11 7 10 19-17c10-9 19-22 18-28zm116 26c-3-3-11 0-18 7l-12 12 18-7c10-3 15-9 12-12zm311-9c-10-10-19 5-10 18l8 13 4-13c2-7 1-15-2-18zm-1246-4c0-13-18-11-24 4l-5 12 2-19 2-18-22-9-22-8-12 17-13 17 13-12 14-12 19 24 19 24 14-6c8-3 15-9 15-14zm100 11v-10h-35l15 10c19 12 20 12 20 0zm62-7-12-5 6-10 7-11-12 7-12 8 12 14 12 14 6-6 6-7-13-4zm438 13c0-3-4-8-10-11l-10-6v10c0 6 5 11 10 11 6 0 10-2 10-4zm71-19-12-12 7 18c3 10 9 15 12 12s0-11-7-18zm354 5c-3-3-11 0-18 7l-12 12 18-7c10-3 15-9 12-12zm-1568-12 5-15-9 11c-4 7-17 14-28 17l-20 6 24-2 24-2 4-15zm164 3 14-18-17 14-18 13-1-8c-1-5-1-12-1-15 1-4-8-5-19-2l-20 6 23 12c13 7 24 13 24 14 1 1 8-7 15-16zm1455 5 7-11-12 7-12 8-17-14-17-13 14 18c16 20 27 22 37 5zm-1801-19-6-9h52l-7 12-7 11 12-7 11-7-5-10-6-9h-35c-37 0-37 0-28 24l6 16 9-6 9-5-5-10zm412 3c-10-10-24-19-32-19h-14l5 9c3 4 13 8 22 8h17l-15 10-15 10h48l-16-18zm870 12c-3-3-12-4-19-1l-13 5 19 1c11 1 17-2 13-5zm93-10c0-2-11-4-25-4h-25v17l25-5c14-2 25-6 25-8zm100-4v-21l-14 13-14 13 12 7c16 11 16 10 16-12zm123 3-5-14-17 13c-9 7-18 14-20 15-3 2 7 2 21 1l26-2-5-13zm448 7h10l-6-10-6-9-13 5-14 5-7-10c-3-6-12-11-18-11h-12l15 10c8 5 11 10 7 10h-8l6 11 7 10 15-5c8-3 19-6 24-6zm-1881-10v-9l-15 5c-8 4-15 8-15 10s7 4 15 4 15-4 15-10zm1577 4c-3-3-12-4-19-1l-13 5 19 1c11 1 17-2 13-5zm-1848-18 12-14-19 5-20 5 5-26 5-26h-23l6 9 5 10-21 6-21 7 28 18c16 10 30 19 30 19 1 1 7-5 13-13zm201 4v-10h40v-35l-9 14-9 13-4-12-4-13-17 27-17 26h10c5 0 10-4 10-10zm176-7c-2-9-9-19-17-21l-14-4 15 11c8 6 11 11 7 11h-8l6 10c9 15 14 12 11-7zm189 7c-3-5-11-10-16-10h-10l6 10c3 6 11 10 16 10h10l-6-10zm636-7 14-18-17 14c-10 7-18 15-18 17 0 8 8 3 21-13zm562 2c0-6-7-11-16-11l-17-2 16 5 17 5-14 10-14 10 13-4c8-2 14-8 15-13zm-833-30c0-3-6-3-12 2-7 4-22 6-33 4l-20-3 19 15 20 15 13-14c7-7 13-15 13-19zm76 26 12 10 8-12 7-12-11 7-12 7v-10c0-6-6-11-14-11h-14l-7 18-6 17 12-12 13-13 12 11zm364-1c-8-5-19-10-23-10h-8l6 10c3 6 14 10 23 10h17l-15-10zm287 4c-3-3-12-4-19-1l-13 5 19 1c11 1 17-2 13-5zm278-5c11-16 1-19-13-3l-13 14h10c5 0 13-5 16-11zm66-12-12-12 7 18c3 10 9 15 12 12s0-11-7-18zm46 9-5-14 11-11c6-6 17-11 25-11h14l-12 14-12 15 21-2 20-1-6-9-6-9 14-9 14-9h-36l6-9 5-10-11-7-12-7 7 11 7 12h-32l-5 15-6 16-14-12c-8-6-14-17-14-24v-12h-29l-4 19-5 19 16-13 16-13-7 17-6 17 15-6 15-5-2 8c-3 11 11 44 18 44 3 0 3-6 0-14zm128 5-5-10 21-6 22-7-14-9c-8-5-20-9-28-9h-13l6 15 5 15h-20l6 10c3 6 11 10 16 10h10l-6-9zm-2004-14c-6-8-9-17-6-21 3-3 0-2-6 3l-11 9 6 11c4 6 12 11 18 11h10l-11-13zm524 3 6-10h-10c-6 0-11 5-11 10 0 6 2 10 4 10 3 0 8-4 11-10zm136-4-21-12 17-18 18-19-27 19c-15 10-28 24-28 29v10l31 1 32 1-22-11zm587-10c-1-14-5-23-9-20-7 4 0 44 7 44 2 0 3-11 2-24zm376 10c-3-8-12-17-20-20l-14-5v9c0 5 8 14 18 19 22 13 22 13 16-3zm184-11c-3-3-9 2-12 12l-7 18 12-12c7-7 10-15 7-18zm-1903 1-20-14-9 6-9 5 5-14 6-15h-37l9 12 10 11-8 8-7 8 10-5c6-3 19-2 30 3 32 12 40 10 20-5zm432 1 11-7 6 12c3 7 3 1 1-14l-4-28h10c5 0 9-4 9-9v-9l-17 2-18 3-14 27-13 28-24-5-24-4-5 7-5 8 38-2c20 0 42-4 49-9zm108-5c-3-3-11 0-18 7l-12 12 18-7c10-3 15-9 12-12zm145 8v-10l-27 1-28 1 25 8c14 4 26 8 28 9 1 1 2-3 2-9zm407 4c-3-3-12-4-19-1l-13 5 19 1c11 1 17-2 13-5zm423 2c0-3-4-8-10-11l-10-6v10c0 6 5 11 10 11 6 0 10-2 10-4zm30-6c0-5-5-10-11-10h-10l6 10c3 6 8 10 11 10 2 0 4-4 4-10zm105 0 6-10-15 6c-18 7-21 14-7 14 6 0 13-4 16-10zm155-5c-30-17-40-18-40-4v10l9-6 10-5 6 10c3 5 14 10 23 10l17-1-25-14zm-1722-41c-4-6-5-13-2-17 7-6 44 24 44 36v8l-10-6c-5-3-10-4-10-1s4 7 9 10l9 6 22-35 22-35 8 5c5 3 12 0 16-6l7-12-11 7-12 7v-26l-21 32-21 33-9-6c-5-3-7-9-4-14l5-8-20-5-20-5-7 11c-4 7-8 19-8 27v15l-22-2-23-3v9c0 5 8 11 17 13l18 3 16-15 16-15-9-11zm166 31c-4-8-7-15-9-15s-5 7-9 15l-5 15h28l-5-15zm928 1 11 7-7-12-7-11-10 5c-5 4-9 12-8 18l1 12 5-13 5-12 10 6zm401 0 6-14-30-11-30-10 4 12 4 12 17-3 16-3v16c0 19 6 19 13 1zm293-2-15-10 8-13 8-13 7 18 7 18 9-14 9-15-14-7-13-8-16 6-16 6 5 8c3 5 1 11-5 15-18 11-11 20 15 20h25l-14-11zm299 7 5-10-8-5-9-5v14c0 17 3 19 12 6zm-1870-10 5-10-8-5-9-5v14c0 17 3 19 12 6zm610-1 6-10h-32l6 10c3 6 8 10 10 10s7-4 10-10zm195 0c0-5-5-10-11-10h-10l6 10c3 6 8 10 11 10 2 0 4-4 4-10zm545-8c-3-3-11 0-18 7l-12 12 18-7c10-3 15-9 12-12zm-1745-24v-7l16 6 16 6 9-14c14-22 10-32-6-16l-15 15-20-5-20-5v23l-9-6-10-5 2 19 1 19 18-12c10-6 18-14 18-18zm600 17c0-8-2-15-4-15s-6 7-10 15l-5 15h9c6 0 10-7 10-15zm30 0c0-8-4-15-10-15-5 0-10 7-10 15s5 15 10 15c6 0 10-7 10-15zm74 6 6-9-20 5c-23 6-26 13-6 13 8 0 17-4 20-9zm76-1v-9l-15 5c-8 4-15 8-15 10s7 4 15 4 15-4 15-10zm180 6c0-3-4-8-10-11l-10-6v10c0 6 5 11 10 11 6 0 10-2 10-4zm370-6c0-5-4-10-10-10-5 0-10 5-10 10 0 6 5 10 10 10 6 0 10-4 10-10zm164 2 5-9h-28l5 9c3 4 7 8 9 8s6-4 9-8zm739-7c-3-9-8-14-10-11-3 3-2 9 2 15 9 16 15 13 8-4zm-1317-30 2-15h-20l5 14 5 14-9 11-9 11 12-10c6-5 13-17 14-25zm219 25c-3-5-12-10-18-10h-12l15 10c19 12 23 12 15 0zm1038-1-11-11 6-16 5-15-19 19-20 19 21 7c30 9 30 9 18-3zm37 1c0-5-2-10-4-10-3 0-8 5-11 10l-6 10h10c6 0 11-4 11-10zm-2390-16v-15l10 6 11 7 26-17 26-17-6 16-6 16h8c5 0 12-7 15-16l6-16-20-5c-11-3-20-9-20-13s-6-10-13-13l-13-5-33 14-32 14 6 9 6 10 14-5c8-4 13-10 10-14l-5-8 20-5c10-3 21-2 24 1 9 8-35 42-54 42h-18l-6-17-7-17 17-13c10-7 13-13 8-13-6 0-15 5-21 11l-11 11-22-12c-12-6-24-9-27-7-2 3 5 8 16 12 12 3 21 10 21 15 0 11 51 60 62 60 5 0 8-7 8-16zm292-9c2 3 5-2 5-10v-15l-13 11-12 10-7-11c-3-5-11-10-16-10h-10l15 16 16 16-6 11c-3 7 1 4 9-5 8-10 16-16 19-13zm583 15 6-10h-10c-5 0-13 5-16 10l-6 10h10c5 0 13-4 16-10zm75 0 15-10h-10c-5 0-17 5-25 10l-15 10h10c6 0 17-5 25-10zm252 3-12-5 6-10 7-11-12 7-11 7 5 10c4 5 12 9 18 8l12-1-13-5zm175-15-5-13-1 19c-1 11 2 17 5 13 3-3 4-12 1-19zm98-7c-6-5-25 10-25 20v10l14-13c8-7 12-15 11-17zm265 21c0-4-9-8-19-8h-20l5 8c3 4 12 8 20 8s14-4 14-8zm225-1 5-10-8-5-9-5v14c0 17 3 19 12 6zm92-13c-1-10-2-18-4-18-1 0-7 8-12 18l-10 19h28l-2-19zm-1525 1-23-9 5-8 5-8h-36v13c0 7 3 10 7 8 3-2 12 0 20 6 8 5 22 8 30 8h15l-23-10zm-742-14 13-15-17 6c-9 3-16 10-16 15 0 13 6 11 20-6zm1041-7-22-8 7-11 7-12-11 7c-7 4-12 14-12 22v15l10-6 10-6v20l17-6 16-6-22-9zm169 18c0-3-4-7-9-11l-10-5-6 10-6 10h15c9 0 16-2 16-4zm150-6v-10h-35l15 10c19 12 20 12 20 0zm787-12-5-13-1 19c-1 11 2 17 5 13 3-3 4-12 1-19zm473 12v-9l-15 5c-8 4-15 8-15 10s7 4 15 4 15-4 15-10zm-2258-15c3 0 10-4 15-9l8-9-12 7-13 7v-10c0-18-18-12-24 7l-5 17 1-20c1-33-1-36-16-23l-14 13 15 17 16 18 11-8c6-3 14-7 18-7zm186 2 16 7-14-16c-17-19-30-14-29 10l1 17 4-12 5-12 17 6zm325-2c-3-9-8-14-10-11-3 3-2 9 2 15 9 16 15 13 8-4zm407 6c0-5-7-12-16-15l-17-6 13 15c14 17 20 19 20 6zm254-6c-4-8-8-15-10-15s-4 7-4 15 4 15 10 15h9l-5-15zm239 8c-7-2-19-2-25 0l-13 5h50l-12-5zm220 0c-7-2-19-2-25 0l-13 5h50l-12-5zm82-3 6-10 27 6 27 6-15-11c-8-6-23-11-32-11h-18v22l-16-6-15-6 6 10c8 13 22 13 30 0zm445 6c0-2-9-6-20-9l-20-5v9c0 5 9 9 20 9s20-2 20-4zm52-24-17-18-7 10-7 11 14 3c8 2 15 8 15 13v10l10-6 9-6-17-17zm-1952 3 12-15h-10c-5 0-12 7-16 15-3 8-4 15-2 15s9-7 16-15zm1680 12c0-2-10-12-22-23l-23-19 19 23c18 21 26 27 26 19zm-2350-28c0-14-17-10-23 5l-6 15 15-6c7-3 14-9 14-14zm2260-4c13-14 21-25 18-25-2 0-15 11-28 25s-21 25-18 25c2 0 15-11 28-25zm465 7c8-22-2-27-20-9-19 19-19 24 0 24 8 0 17-7 20-15zm-2095 4c0-2-7-7-16-10l-15-6 6 10c6 10 25 14 25 6zm265-6c-3-5-14-10-23-9h-17l20 9c27 11 27 11 20 0zm90 0-7-11 14-17 13-17-17 14c-20 15-24 41-7 41h10l-6-10zm1600 0 6-10h-10c-6 0-11 5-11 10 0 6 2 10 4 10 3 0 8-4 11-10zm-2038-6c-3-3-12-4-19-1l-13 5 19 1c11 1 17-2 13-5zm48-14 6-10h-10c-6 0-11 5-11 10 0 6 2 10 4 10 3 0 8-4 11-10zm1470-20c-3-4 2-10 10-14l15-5-1-18v-18l-9 20-8 20-7-17c-4-10-11-18-16-18h-9v82l15-12c8-7 13-16 10-20zm-2035 10c0-5-5-10-11-10h-10l6 10c3 6 8 10 11 10 2 0 4-4 4-10zm1970 0c0-5-5-10-11-10h-10l6 10c3 6 8 10 11 10 2 0 4-4 4-10zm700 1c0-5-9-11-20-14l-20-5v8c0 5 8 11 18 13 9 3 18 5 20 6 1 0 2-3 2-8zm-2458-22-22-20 5-9c3-5 1-12-5-15l-10-6 1 8c1 4 0 10-1 13s-3 13-5 22l-3 17 14-6 14-5v22h34l-22-21zm53 11 6-10h-32l6 10c3 6 8 10 10 10s7-4 10-10zm218-5c-3-9-8-14-10-11-3 3-2 9 2 15 9 16 15 13 8-4zm-73 1c0-2-7-7-16-10l-15-6 6 10c6 10 25 14 25 6zm-375-23c-3-8-5-19-5-25v-10l-15 12c-8 7-13 16-10 20l5 8-17 5-18 4h66l-6-14zm95 7c0-5-7-10-16-10h-15l6 10c3 6 10 10 16 10 5 0 9-4 9-10zm1739-16c-6-8-18-14-27-14h-15l7 8c4 4 13 7 19 7l12 1-3 13-2 12 10-6 11-7-12-14zm-1338-7-12-12 7 18c3 10 9 15 12 12s0-11-7-18zm-646 3-6-10h32l-6 10-6 10h10c6 0 11-2 11-4s3-11 6-19l5-14-28 4-28 5 15-12 15-12-20 7c-11 4-26 8-33 9-14 3-40 26-28 26 4 0 17-5 28-11l21-11-6 16-6 16h30l-6-10zm79-6 16-15 1 18v18l10-24c11-29 11-29-26-20-16 4-24 7-16 8l15 1-20 15-19 14 12 1c6 0 19-7 27-16zm259-4 5-20-21-12-22-11 14 16 13 17-6 15-5 15h8c5 0 11-9 14-20zm32 2c-3-3-11 0-18 7l-12 12 18-7c10-3 15-9 12-12zm445 9c0-5-7-12-16-15l-17-6 13 15c14 17 20 19 20 6zm1270-1v-10h-19c-11 0-23 5-26 10l-6 10h51v-10zm-1800-11v-10l-9 5-9 6-5-12-5-13-1 18-1 17h15c8 0 15-5 15-11zm2303 4c-7-2-19-2-25 0l-13 5h50l-12-5zm-2343-7c0-2-7-6-15-10l-15-5v9c0 6 7 10 15 10s15-2 15-4zm1260 0c0-3-4-8-10-11l-10-6v10c0 6 5 11 10 11 6 0 10-2 10-4zm-1300-16v-10h-35l15 10c19 12 20 12 20 0zm2147-12-5-13-1 19c-1 11 2 17 5 13 3-3 4-12 1-19zm-2212 2-6-10h21v-34l-16 16-16 16 6 11c4 6 9 11 12 11s2-4-1-10zm2342-5v-14l-9 5-8 5 5 10c9 13 12 11 12-6zm-2430-2-7-6 18-14 17-14-12-5c-7-3-13-12-13-20s-5-14-10-14h-11l11 21c7 11 9 23 7 26-3 2-8-4-11-15-4-11-14-23-22-26l-16-6 6 16c3 8 6 20 6 25v10l12-7 11-7-7 12c-4 6-11 9-15 7-4-3-13 0-21 6l-15 10 15-5c8-2 24-1 35 4 26 10 30 10 22 2zm43 3c0-3-4-7-9-11l-10-5-6 10-6 10h15c9 0 16-2 16-4zm289-16c-13-9-39-2-39 10v7l26-5 26-5-13-7zm-189-10c-13-24-16-25-24-4l-6 15 9-6 10-5 6 10c11 19 16 10 5-10zm180-36c0-2-6-4-14-4h-14l-17 27-18 26 32-22c17-12 31-24 31-27zm1764 31c-4-8-8-15-10-15s-4 7-4 15 4 15 10 15h9l-5-15zm676 5c0-5-2-10-4-10-3 0-8 5-11 10l-6 10h10c6 0 11-4 11-10zm-2812-27-3-28h12c6 0 15-4 20-8l8-9-10 2c-5 1-20 2-33 1l-23-1 7-12 7-11-11 7c-17 10-15 26 5 48l16 18h-38l15 10c8 5 19 10 23 10h8l-3-27zm597 17 6-10h-10c-6 0-11 5-11 10 0 6 2 10 4 10 3 0 8-4 11-10zm-463-17c10-9 18-23 18-32v-16l-10 15-10 15v-30l-10 15-10 15v-14c0-8-3-12-6-9-3 4-1 15 5 26l11 20-13 5c-6 3-8 6-3 6 5 1 18-6 28-16zm112 5c-3-4-12-8-20-8h-15l5 8c3 5 12 9 20 9h15l-5-9zm693-13v-14l-9 5-8 5 5 10c9 13 12 11 12-6zm1430-27-5-13v50l5-12c2-7 2-19 0-25zm-2277 16c0-2-9-8-20-14l-20-10 6 13c4 11 34 21 34 11zm170 0c0-2-4-5-9-9l-10-5-5 8-5 9h14c8 0 15-2 15-3zm60 2c0-2-8-10-17-17l-18-14 14 18c13 16 21 21 21 13zm20-10c0-2-8-10-17-17l-18-14 14 18c13 16 21 21 21 13zm-100-23v8l10-6 10-6-6-10-6-10-14 12c-8 6-14 17-14 23v11l10-15c5-8 10-11 10-7zm-198-10-12-5 5-8c3-5 2-11-3-14l-8-5-1 20-2 19 17-1 17-1-13-5zm110-25-11-11 6 24 7 23 4-13c2-7-1-18-6-23zm2221 12 5-20h-9c-5 0-9 9-9 20s2 20 4 20 6-9 9-20zm425-11-4-13-7 23-6 24 11-11c5-5 8-16 6-23zm-2581 15c-3-3-12-4-19-1l-13 5 19 1c11 1 17-2 13-5zm1607-2 4-7-39 3c-21 2-39 6-39 8 0 7 69 4 74-4zm-1878-39c-10-10-19 5-10 18l8 13 4-13c2-7 1-15-2-18zm64 11v-15l-10 6-10 6 5 10c9 14 15 11 15-7zm77-6-5-13-1 19c-1 11 2 17 5 13 3-3 4-12 1-19zm125-12c13-19 9-31-4-14-7 8-22 21-33 27l-20 12 25-7c14-4 28-12 32-18zm-72 4c0-5-2-10-4-10-3 0-8 5-11 10l-6 10h10c6 0 11-4 11-10zm-136-6c9-3 16-12 16-19v-13l-36 11-36 11 18 7c11 4 20 8 21 8 1 1 8-2 17-5zm436-20c0-2-4-5-9-9l-10-5-5 8-5 9h14c8 0 15-2 15-3zm-468-18 11 7-7-11-6-10 12-5 13-6-27 2c-16 1-28 5-28 9 0 3-12 9-27 11l-28 4 33-1 32-2 1 11 1 10 5-13 5-12 10 6zm68-17c-5-18-7-36-4-40l5-9h-9c-16 0-21 12-12 29 5 9 11 24 14 34 10 31 15 18 6-14zm75 21 6-10-15 6c-18 7-21 14-7 14 6 0 13-4 16-10zm232-12-5-13-1 19c-1 11 2 17 5 13 3-3 4-12 1-19zm-172 2 6-10-15 6c-18 7-21 14-7 14 6 0 13-4 16-10zm1695 0v-10h-35l15 10c19 12 20 12 20 0zm-1801-16-13-16 19 4 18 3 4-12 4-11-21 5c-11 3-23 9-26 14-7 11 4 29 18 29h10l-13-16zm85-16-5-7-14 6c-21 7-19 12 4 10l20-1-5-8zm200-34 5-39-8-35-9-35 1 77c1 84 4 94 11 32zm1530 24-6-9-14 12c-19 16-18 18 6 12l20-5-6-10zm-1244-4v-15l-10 6-10 6 5 10c9 14 15 11 15-7zm1337-6-5-13-1 19c-1 11 2 17 5 13 3-3 4-12 1-19zm-1900-14c-3-3-12-4-19-1l-13 5 19 1c11 1 17-2 13-5zm38-25c-4-5-12-9-18-8l-12 1 13 5 12 5-6 10-7 11 12-7 11-7-5-10zm2012-11-5-13v50l5-12c2-7 2-19 0-25zm-2072 3 5-10-8-5-9-5v14c0 17 3 19 12 6zm2229-12-5-9-10 6-9 5 6 10 5 9 10-6 9-5-6-10zm-324-10v-10l12 7 11 7-8-13-8-12 22 7 21 6v-21h-37l-18 20-18 20h11c7 0 12-5 12-11zm275-9 6-10h-32l6 10c3 6 8 10 10 10s7-4 10-10zm-2301-9 6-9-15 2c-8 1-18 5-21 9l-7 7h16c9 0 18-4 21-9zm112-14 1-12-26-2-26-1 23 12c12 7 20 15 17 19s-2 5 2 2 8-11 9-18zm109 13 6-10-15 6c-18 7-21 14-7 14 6 0 13-4 16-10zm-7-35c-3-3-9 2-12 12l-7 18 12-12c7-7 10-15 7-18zm2002 11c0-3-4-8-10-11l-10-6v10c0 6 5 11 10 11 6 0 10-2 10-4zm-2070-10c0-2-8-10-17-17l-18-14 14 18c13 16 21 21 21 13zm495-16-5-8 15-6c8-3 15-10 15-16v-10l-20 17c-11 10-20 23-20 31v13l10-6c6-4 8-10 5-15zm-538-26-4-24h7c4 0 10 7 14 15 3 8 11 15 18 15h13l-12-8-12-8 9-14 10-15v26l13-8c6-4 15-8 19-8 3 0 9-3 13-6l6-7-16-5-15-6v7c0 5-17 9-37 9l-38 1-17-15-18-16 6-8 5-9h-10c-17 0-13 20 8 38 11 10 22 27 26 40l6 22h-10c-6 0-11 4-11 10v9l16-6 16-6-5-23zm319 11c1-8-2-15-6-15h-9l2 20c1 21 10 18 13-5zm-471-5 6-10H41c-6 0-11 5-11 10 0 6 2 10 4 10 3 0 8-4 11-10zm469-35 5-15h-9c-6 0-10 7-10 15s2 15 4 15 6-7 10-15zm2343-1c-3-3-12-4-19-1l-13 5 19 1c11 1 17-2 13-5zm-2731-13-6-9-23 6-22 6 18-18c24-24 22-33-3-11l-20 18 6 8c3 5 16 9 30 9h25l-5-9zm662-16c-3-3-9 2-12 12l-7 18 12-12c7-7 10-15 7-18zm-281-17-5-13-1 19c-1 11 2 17 5 13 3-3 4-12 1-19zm-143-6 5-8h-38l5 8c3 4 9 8 14 8s11-4 14-8zm-219-22 6-10h-32l6 10c3 6 8 10 10 10s7-4 10-10zm55-4c0-3-4-8-10-11l-10-6v10c0 6 5 11 10 11 6 0 10-2 10-4zm-60-81-12-15h23l-6-10c-3-5-11-10-16-10h-10l6 10 6 10h-8c-5 0-15-6-22-12l-13-13 13 22c7 12 16 20 20 17 4-2 10 0 14 6 3 5 9 10 12 10s0-7-7-15zm86-18 14 5v-19l-27 3c-16 1-35 3-43 4l-15 2 25 7 25 7 3-7 3-8 15 6zm286-22 5-25-8-6-9-5v30c0 38 6 40 12 6zm-222-11c0-2-4-5-9-9l-10-5-5 8-5 9h14c8 0 15-2 15-3zm437-26-5-13-1 19c-1 11 2 17 5 13 3-3 4-12 1-19zm1626 7c-3-9-8-14-10-11-3 3-2 9 2 15 9 16 15 13 8-4zm-2123-15-12-8 13-4 13-4-11-7-10-6-11 23-11 24 21-6 20-5-12-7zm102-4 11 7-7-11c-4-7-11-12-17-12h-9l1 18 1 17 5-13 5-12 10 6zm-67-26 6-10h-10c-6 0-11 5-11 10 0 6 2 10 4 10 3 0 8-4 11-10zm-137-18 19-19h-29c-15 0-28 1-28 3 0 7 13 34 16 34 2 0 12-8 22-18zm42 2c0-2-9-4-21-4h-20l6 10 6 9 14-6c8-3 15-7 15-9zm2010 6c0-5-5-10-11-10h-10l6 10c3 6 8 10 11 10 2 0 4-4 4-10zm-1890-21v-10l-9 6-10 5-6-10-6-10 18-1 18-1-13-5-12-5 6-11 7-12-12 11c-6 6-13 20-16 32l-4 22h39v-11zm-73-23v-15l-19 10c-23 12-23 19 0 19h19v-14zm123-21 12-15h-29v15c0 8 1 15 2 15 2 0 8-7 15-15zm-170-12c-8-3-22-11-30-17l-15-11 14 18 13 17 17-1 16-1-15-5zm57-24-22-5-7 10-8 11v-24l-15 6c-23 8-10 16 25 15l30-1v24l10-15 9-15-22-6zm208-3c0-13-2-27-5-30-5-4-6 43-1 52 4 8 7-1 6-22zm-128 0v-14l-14 5-13 5 6 9c8 14 21 11 21-5zm58 4 6-10h-10c-5 0-13 5-16 10l-6 10h10c5 0 13-4 16-10zm965-50v-50l-17 1-18 1 13 5 12 5v58l-17 1-18 1 18 5c9 2 17 9 17 14s2 9 5 9 5-22 5-50zm532-2c-5-89-9-97-11-20l-1 72h15l-3-52zm425 46c-3-3-12-4-19-1l-13 5 19 1c11 1 17-2 13-5zm-2117-8c0-3-4-8-10-11l-10-6v10c0 6 5 11 10 11 6 0 10-2 10-4zm50-16c-6-11-13-20-16-20-2 0 0 9 6 20s13 20 16 20c2 0 0-9-6-20zm1487-147-3-58v230l3-57c2-32 2-84 0-115zM141 1133l14-18-20 15c-11 8-22 16-24 17-2 2 0 3 6 3s17-8 24-17zm49 2c-7-8-17-15-23-15h-11l20 15c25 19 30 19 14 0zm-73-20c0-8-3-15-6-16-3 0-13-2-22-4-9-1-23 2-30 7l-14 10 15-5 16-5 19 14c23 17 22 17 22-1zm190 1v-13l-21 5-20 5 20 8c10 4 19 8 20 8 0 1 1-5 1-13zm263 4c0-5-2-10-4-10-3 0-8 5-11 10l-6 10h10c6 0 11-4 11-10zm1060 1c0-5-10-11-22-14l-23-6 19 14c23 17 26 18 26 6zm-1223-7c-2-2-14-7-26-9l-22-4 5 7c2 4 14 8 26 9s20 0 17-3zm690 0c-3-3-12-4-19-1l-13 5 19 1c11 1 17-2 13-5zm-637-14c0-5-2-10-4-10-3 0-8 5-11 10l-6 10h10c6 0 11-4 11-10zm1374-29c-2-3-12 3-22 13l-17 18 22-13c12-7 20-15 17-18zm-1779 9-6-10h35l-11-11-11-11-11 6c-14 9-14 36 0 36h10l-6-10zm110-20c-3-4-14-10-25-13l-20-5 6 9c3 5 12 9 20 9h15l-5 8-5 9-33-3-33-3 30 8 30 7 12-9c7-5 11-13 8-17zm1428 13c-13-2-35-2-50 0l-28 4h100l-22-4zM120 992c0-1-8 2-19 7l-18 10-7-7-7-6 6 16 7 16 19-16c10-9 19-18 19-20zm403 31c-7-2-19-2-25 0l-13 5h50l-12-5zm-183-7c0-2-7-6-15-10l-15-5v9c0 6 7 10 15 10s15-2 15-4zm989-43-2-48-6 40c-7 38-5 55 5 55 2 0 3-21 3-47zm-1197-3-17-16-12 12c-20 19-16 25 12 18l25-6-6 18-6 19 11-15 10-14-17-16zm71 3c-16-6-17-33-2-33h11l-4-11-4-12-27-3-27-3v39h-12l-13 1 18 10 17 10 11-6 10-7 6 22 6 21 11-12 11-11-12-5zm-128-2c-1-8-7-17-13-19l-12-4v39h28l-3-16zm330-10-6-21h-19c-10 0-22 5-25 11l-7 10 13-2c8-1 20-1 27 0l12 1v17c0 9 3 14 6 10 3-3 3-15-1-26zm380 19c-3-5-12-10-18-10h-12l15 10c19 12 23 12 15 0zm-515-15c0-8-2-15-4-15s-6 7-10 15l-5 15h9c6 0 10-7 10-15zm20-25c0-5-5-10-11-10h-10l6 10c3 6 8 10 11 10 2 0 4-4 4-10zm166-18-18-17 13 22c7 12 15 20 18 17 3-2-3-12-13-22zm204 7v-10l-10 6c-5 3-10 11-10 16v10l10-6c6-3 10-11 10-16zm224 12c-8-8-34-10-38-2l-5 7h24c14 0 22-2 19-5zm-778-13 7-11-11 7-10 6-5-12-5-13-1 18-1 17h9c6 0 13-5 17-12zm27-2 6-14-13-5-14-6 5 20c6 23 9 24 16 5zm202 5 5-10-11-7-12-7 7 11 7 12h-7c-4 0-15-7-25-16l-18-16-13 5-13 6 23 6c12 4 22 11 22 16 0 12 27 12 35 0zm425-27c0-1-5-6-12-10l-11-7 7 11 7 12h-14c-8 0-17 7-21 15l-5 15 24-16c14-9 25-18 25-20zm231 3-12-12 7 18c3 10 9 15 12 12s0-11-7-18zm1979 19c0-2-7-7-16-10l-15-6 6 10c6 10 25 14 25 6zM360 890l15-10-10 1c-5 0-19 4-30 9l-20 9h15c8 0 22-4 30-9zm214 2 5-8-22-1-22-2 15 9c18 12 18 12 24 2zm-424-12c0-6-10-14-22-19l-23-8-7 10c-10 17 0 27 28 27h24v-10zm125 0 6-10h-10c-6 0-11 5-11 10 0 6 2 10 4 10 3 0 8-4 11-10zm242 4c-3-3-12-4-19-1l-13 5 19 1c11 1 17-2 13-5zm99-23-16-15-12 13-13 12 19-7 19-7-6 10-6 10h30l-15-16zm-246-7c0-2-4-5-9-9l-10-5-5 8-5 9h14c8 0 15-2 15-3zm-153-18-6-15 10-3c5-2 11-13 13-25l5-22-14 5-14 6-18-11-18-10 44-1h43l-12-15-13-16-7 11-7 11-16-15-16-16-10 18-10 19 6 21c3 12 10 22 15 22h9l-6-10-6-10 17 7 16 6-23 13-24 13-3-10c-2-5-8-9-13-9h-10l7 11 7 11-14 9-14 9h16c8 0 21-6 28-12l13-13 11 18c14 21 21 22 14 3zm-102-25c-6-5-25 10-25 20v10l14-13c8-7 12-15 11-17zm205 18v12l11-7 11-6-13-9c-7-4-16-6-20-3-4 2-12-3-19-11s-18-15-24-15l-11 1 18 10 17 10v31l15-12 15-12v11zm105-18c-6-5-25 10-25 20v10l14-13c8-7 12-15 11-17zm-51 7c-3-4-9-8-15-8-5 0-9 4-9 8 0 5 7 9 15 9h14l-5-9zm-237-24c-3-3-12-4-19-1l-13 5 19 1c11 1 17-2 13-5zm196-37-5-27-14 10-13 11 17 18c21 22 21 22 15-12zm194 27c-3-3-12-4-19-1l-13 5 19 1c11 1 17-2 13-5zM80 728v-21l-7 7c-11 10-12 36-2 36h9v-22zm44-3 5-15-12 3-12 2 3-17 3-18h-11c-14 0-13 16 2 40s14 24 22 5zm56-9 15-20-16 6-17 6-13-11-13-12 13 18 13 17h-27l15 10c8 5 15 8 15 7s7-11 15-21zm177-8-5-13-1 19c-1 11 2 17 5 13 3-3 4-12 1-19zm476-3c-3-9-8-14-10-11-3 3-2 9 2 15 9 16 15 13 8-4zm-352-28-12-12 7 18c3 10 9 15 12 12s0-11-7-18zm-246-13-20-15 14-8 13-8-11-7-11-7v22l-8-5-9-5 2-36 1-35h-17l7-12 7-11-11 7-11 6-6-10c-3-5-12-10-18-10l-12 1 18 13c9 7 17 17 17 21v7l-16-6-15-6 6 10c3 6 12 10 19 10h14l5 20 5 19-14 12c-16 13-19 39-3 39 5 0 8-4 5-8-2-4-1-14 4-21l8-14 6 21 7 21 17 4c28 7 28 7 7-9zm45 12c0-3-4-8-10-11l-10-6v10c0 6 5 11 10 11 6 0 10-2 10-4zm736-22c1-9 0-13-4-10-3 4-7 14-8 22-1 9 0 13 4 10 3-4 7-14 8-22zm-861-13-6-11-11 6-10 7 13 8c16 10 23 4 14-10zm150 9 6-10-15 6c-18 7-21 14-7 14 6 0 13-4 16-10zm375 6c0-3-4-8-10-11l-10-6v10c0 6 5 11 10 11 6 0 10-2 10-4zm-384-42-5-14 12-1c7-1 16-1 20 0l8 1-6-10c-3-5-15-10-27-10h-20l6 25 6 25h-15c-8 0-15 5-15 10v11l21-11 21-12-6-14zm90 14 7-11-11 7-12 7v-10c0-6-5-11-11-11h-11l12 15c15 18 17 18 26 3zm97-3c-3-9-8-14-10-11-3 3-2 9 2 15 9 16 15 13 8-4zm113-14c-3-5-17-11-32-14l-26-5 9 8c4 5 17 10 28 13s21 5 23 6c2 0 1-3-2-8zm-111-29c-3-3-11 0-18 7l-12 12 18-7c10-3 15-9 12-12zm-368 2c-3-3-12-4-19-1l-13 5 19 1c11 1 17-2 13-5zm117-35c-10-17-19-9-19 16v25l12-16c7-9 10-21 7-25zm166 20c0-5-7-9-15-9-15 0-20 12-9 23 8 8 24-1 24-14zm26-1c-2-7-7-21-11-32l-8-18 14-9 14-9h-17c-10 0-27-9-38-20-22-22-27-35-8-24l11 7-7-11-7-12 13-1 13-1-13-5c-6-2-10-8-8-12 3-4-1-8-9-8h-15l10 12 10 12-7 6c-3 4-14 7-24 7h-18l4 13 5 12-27 2c-16 1-38 3-50 3s-25 5-29 12l-7 11 20-5c26-7 35 0 50 35 13 29 13 30-11 21l-16-6 7-12 6-11-8 8c-5 4-10 13-11 20l-2 12h79l-16-11c-8-6-15-15-15-19v-7l16 6 15 6-7-11-7-11 14-9 13-8 8 12 8 12v-45h9c9 0 22 23 27 49 1 8 9 18 16 22 7 5 9 9 5 9h-8l6 10c9 14 14 13 11-2zm32-18c-7-10-14-17-17-15-4 4 18 35 25 35 2 0-1-9-8-20zm156 9c-2-4 1-9 8-11l12-4-10-7-10-6-11 18-11 18h14c7 0 11-4 8-8zm1536-3c0-2-7-7-16-10l-15-6 6 10c6 10 25 14 25 6zM380 515v-10l-10 15c-5 8-10 20-10 25v10l10-15c5-8 10-19 10-25zm-179-7c6-13 8-20 4-16l-8 7-18-9-17-10-5 13-4 12 16 12c21 16 18 17 32-9zm29 12c0-5-5-10-11-10h-10l6 10c3 6 8 10 11 10 2 0 4-4 4-10zm384-32c-3-4-11-8-17-7l-12 1 12 4 12 5-6 17-5 17 10-15c6-8 8-18 6-22zm93-24c-3-4-14-3-24 1-10 5-21 8-25 7l-7-2 5 15 6 15 8-5c5-3 12 0 16 7l8 12 9-22c6-12 7-25 4-28zm-294 6 5-20h-9c-5 0-9 9-9 20s2 20 4 20 6-9 9-20zm47 14c0-2-4-5-9-9l-10-5-5 8-5 9h14c8 0 15-2 15-3zm129-41c-6-7-14-13-16-13-3 0 0 7 7 15l12 15h-10c-5 0-13 8-16 17l-7 17 21-19 20-18-11-14zm544 23 17 2-6-9-5-9-10 5-9 6v-26l-10 15c-5 8-9 22-9 30v15l7-16 7-16 18 3zm1728 7 14-18-17 14c-17 13-22 21-14 21 2 0 10-8 17-17zm-1421 3c0-3-4-8-10-11l-10-6v10c0 6 5 11 10 11 6 0 10-2 10-4zm-889-19-11-14 7-7 7-7-17 7-18 6 18 14c23 17 28 18 14 1zm414-16 5-10-11-7-12-7 7 11 6 10-12 5-13 5 12 1c6 1 14-3 18-8zm-495-9c0-5-7-9-15-9h-14l5 9c3 4 9 8 15 8 5 0 9-4 9-8zm-67-27c-3-9-8-14-10-11-3 3-2 9 2 15 9 16 15 13 8-4zm159 1 9 6-13-21-13-21-6 18c-4 9-4 21-1 27l6 9 4-12 4-12 10 6zm266-11c-3-3-9 2-12 12l-7 18 12-12c7-7 10-15 7-18zm-364 3c-3-4-15-8-27-8h-22l13 8c7 5 19 9 27 9h14l-5-9zm716 8c0-2-7-7-16-10l-15-6 6 10c6 10 25 14 25 6zm-584-32c-4-9-9-15-11-12-3 3-3 13 1 22s9 15 11 12c3-3 3-13-1-22zm474 6c0-5-2-10-4-10-3 0-8 5-11 10l-6 10h10c6 0 11-4 11-10zm-647-20 5-20-9 6c-5 3-9 12-9 20 0 20 7 17 13-6zm32 10-20-9h18l18-1-6-10-7-11-14 12-14 11 6 9c3 5 13 9 22 8h17l-20-9zm235-11-25-7 15-1 15-1-15-9c-8-6-18-7-22-5l-9 6 6-29 7-28-14 25-14 25 13 13c7 8 11 17 9 21l-5 7 32-5 32-5-25-7zm73 14c-7-2-19-2-25 0l-13 5h50l-12-5zm932-2c-3-3-12-6-20-7l-15-2 5 7c2 4 11 8 20 8 8 0 13-3 10-6zM525 360c-3-4-14-10-25-13l-20-5v8c0 9 17 17 37 17 7 0 10-4 8-7zm1993 3c-10-2-18-9-18-15s-3-9-6-5c-10 10 6 27 24 26l17-1-17-5zm330-18c-3-3-9 2-12 12l-7 18 12-12c7-7 10-15 7-18zm-2587-4-13-9 13-5 14-5-12-1c-6-1-15 4-19 10l-7 11 14 9c7 4 16 6 18 3 3-3-1-9-8-13zm866-20c-5-2-13 3-18 10-15 24-10 30 9 12l18-18-9-4zm133 35c0-3-4-8-10-11l-10-6v10c0 6 5 11 10 11 6 0 10-2 10-4zM203 343c-7-2-13-9-13-15v-10l16 6 15 6-5-9c-3-5-17-8-31-8h-26l-19-18c-22-20-26-9-7 16l12 16 14-5 14-5 9 17c5 9 14 16 21 15l12-1-12-5zm882-2 5-10-8-5-9-5v14c0 17 3 19 12 6zm142-6v-14l-9 5-8 5 5 10c9 13 12 11 12-6zm-630-10v-14l-9 5-8 5 5 10c9 13 12 11 12-6zm1142 1 12-14-13-8-13-7 7 8 8 8-11 14c-6 7-9 13-6 13 2 0 10-6 16-14zM453 291l4-18h-25l5 14 5 13-13 18-14 17 16-13c9-7 19-21 22-31zm344 26v-14h-27l11 14c6 7 12 13 14 13 1 0 2-6 2-13zm-408-18c-5-10-9-25-9-33v-16h17c9 0 14-3 10-6-3-3-14-3-25 0l-19 7 1 33 1 34 17-1 16-1-9-17zm515 9-5-7-14 6c-21 7-19 12 4 10l20-1-5-8zm281-8 6-10h-10c-6 0-11 5-11 10 0 6 2 10 4 10 3 0 8-4 11-10zm532 4c-3-3-12-4-19-1l-13 5 19 1c11 1 17-2 13-5zM416 289l-18-11 13-9 14-9h-35v14c0 14 14 24 35 25 6 0 2-4-9-10zm96 3-13-9 6-15 6-16-20-14-21-15 8-8 7-8-18 6c-10 4-22 7-27 7-4 0-11 7-14 16l-6 15 10-6 9-6 33 30c18 17 38 30 43 31h10l-13-8zm78-7c0-8 5-15 10-15 6 0 9-3 8-7-1-5 4-19 11-31 7-13 10-26 7-29s-10 6-16 21l-10 27-10-6-10-6 6 14 5 14-16 17-16 16h31v-15zm115-23c-6-6-35 18-35 29 0 5 9 1 20-8s17-19 15-21zm365 28c0-5-2-10-4-10-3 0-8 5-11 10l-6 10h10c6 0 11-4 11-10zm699-30v-15l-9 20c-5 11-9 25-9 30l-1 10 10-15c5-8 9-22 9-30zM547 275c0-8-4-15-9-15-10 0-11 14-1 23 9 10 10 9 10-8zm201-9-23-12 1-17 2-17h-29l5 9 6 9-12 5-13 5 18 1 17 1v31l10-6 10-6v20l16-6 15-6-23-11zm402 14 8 12 18-11 19-10-22-1c-13 0-26 0-30-1-4 0-8 4-9 11l-2 11 5-12 5-11 8 12zm190 0c0-5-7-10-15-10s-15 5-15 10c0 6 7 10 15 10s15-4 15-10zm1115 0 6-10h-10c-6 0-11 5-11 10 0 6 2 10 4 10 3 0 8-4 11-10zm322 3-17-5 5-8 5-8-20 5-20 5 6 9c3 5 17 8 32 8l27-1-18-5zm-1527-13c0-5-9-14-19-19l-19-11-6 16-6 15 8-5c4-2 14-1 22 5 19 11 20 11 20-1zm537-12-5-13-1 19c-1 11 2 17 5 13 3-3 4-12 1-19zm1026-3c-7-21-12-19-10 4l1 20 8-5 7-5-6-14zM950 266c0-2-11-6-25-8l-24-5 5 8c5 9 44 13 44 5zm327-11v-14l-9 5-8 5 5 10c9 13 12 11 12-6zm1033 11c0-2-9-6-20-9l-20-5 6 9c5 9 34 13 34 5zm370-12c0-2-7-4-15-4s-15 4-15 10v9l15-5c8-4 15-8 15-10zm168-4c-7-10-14-17-17-15-4 4 18 35 25 35 2 0-1-9-8-20zm92 6c0-2-8-10-17-17l-18-14 14 18c13 16 21 21 21 13zm-1895-16 6-10h-10c-6 0-11 5-11 10 0 6 2 10 4 10 3 0 8-4 11-10zm1129 2 5-9h-28l5 9c3 4 7 8 9 8s6-4 9-8zm541-1 5-10-10-6-10-6v18l-27-3-28-4 25 9c34 12 38 12 45 2zm-1601-16-6-15h-43l25 14c14 8 26 14 27 15s0-6-3-14zm771-3c-3-3-11 0-18 7l-12 12 18-7c10-3 15-9 12-12zM87 215v-14l-9 5-8 5 5 10c9 13 12 11 12-6zm428-4c-3-6-11-11-16-11h-10l13 14c14 16 24 13 13-3zm635-1c0-5-5-10-11-10h-10l6 10c3 6 8 10 11 10 2 0 4-4 4-10zm30-10c-6-11-13-20-16-20-2 0 0 9 6 20s13 20 16 20c2 0 0-9-6-20zm-600-16c0-3-5-2-10 1l-11 7-17-14-17-13 12 16 13 16-8 8c-4 4 3 2 16-4 12-6 22-14 22-17zm110 16c-8-5-19-10-23-10h-8l6 10c3 6 14 10 23 10h17l-15-10zm60 6c0-3-4-8-10-11l-10-6v10c0 6 5 11 10 11 6 0 10-2 10-4zm60-11 12-15h-10c-5 0-12 7-16 15-3 8-4 15-2 15s9-7 16-15zm1333 0c-3-9-8-14-10-11-3 3-2 9 2 15 9 16 15 13 8-4zM896 171c-4-6-13-11-19-10l-12 1 13 5c6 2 12 9 12 14v10l-12-7-11-7 8 12 7 13 10-10 10-10-6-11zm679 19c-3-5-12-10-18-10h-12l15 10c19 12 23 12 15 0zm-1092-7c-7-2-21-2-30 0l-18 5h60l-12-5zm374-7v-14l-15 5-14 6 14 8c7 5 13 9 14 9 0 0 1-6 1-14zm294-3 14-18-17 14c-10 7-18 15-18 17 0 8 8 3 21-13zm267-8c-3-3-9 2-12 12l-7 18 12-12c7-7 10-15 7-18zm-43-3c-3-3-11 0-18 7l-12 12 18-7c10-3 15-9 12-12zm900 9 5-10-11-7-12-7 7 11 6 10-12 5-13 5 12 1c6 1 14-3 18-8zm511-19-18-17 13 22c7 12 15 20 18 17 3-2-3-12-13-22zm-2235 2-23-16-11 11-12 12 16-6 17-6 7 10c3 6 11 11 18 11h11l-23-16zm83 7 6-8-23-19-22-19 18 21 17 21-7 6c-3 4-4 7 0 7 3 0 8-4 11-9zm-371-37c-7-19-10-18-16 5l-5 20 14-6 13-5-6-14zm1321-4-10-10v40l10-10 10-10-10-10zm1346 26c0-2-7-7-16-10l-15-6 6 10c6 10 25 14 25 6zm60-6c0-5-4-10-10-10-5 0-10 5-10 10 0 6 5 10 10 10 6 0 10-4 10-10zM805 122c-3-3-11 0-18 7l-12 12 18-7c10-3 15-9 12-12zM376 98c9 5 24 1 24-7v-9l-30 2c-16 1-33 5-36 9l-7 7h25l-13 18-14 17 24-20c13-11 25-19 27-17zm585 9-12-12 7 18c3 10 9 15 12 12s0-11-7-18zm324 13 6-10h-10c-5 0-13 5-16 10l-6 10h10c5 0 13-4 16-10zm-730-10 6-10h-10c-6 0-11 5-11 10 0 6 2 10 4 10 3 0 8-4 11-10zm214-16c14-12-19-1-35 12l-19 15 25-12c14-6 27-13 29-15zm80 5c-22-13-31-11-17 5 7 8 17 12 22 9l8-5-13-9zm323-3 11 7-7-12-7-11-10 5c-5 4-9 12-8 18l1 12 5-13 5-12 10 6zm342 6 5-9h-28l5 9c3 4 7 8 9 8s6-4 9-8zM307 94c-3-3-12-4-19-1l-13 5 19 1c11 1 17-2 13-5zm193 2c0-2-7-7-16-10l-15-6 6 10c6 10 25 14 25 6zm424-5 6-9-15-6-14-5-7 11-7 11 11-7 12-7v10c0 13 7 14 14 2zm531-9c-3-3-11 0-18 7l-12 12 18-7c10-3 15-9 12-12zm410 0c-3-3-11 0-18 7l-12 12 18-7c10-3 15-9 12-12zm663-28-2-22-17 8-16 9-8-7-8-7 7 13 8 13 14-5c19-7 18 3-3 27l-18 20 22-14 22-13-1-22zM555 80c-3-5-14-10-23-10h-17l15 10c8 5 19 10 23 10h8l-6-10zm119-2c-3-4-9-8-15-8-5 0-9 4-9 8 0 5 7 9 15 9h14l-5-9zm46 6c0-2-4-5-9-9l-10-5-5 8-5 9h14c8 0 15-2 15-3zm890 2c0-2-8-10-17-17l-18-14 14 18c13 16 21 21 21 13zm394-4 5-9h-28l5 9c3 4 7 8 9 8s6-4 9-8zm673-14-5-13-1 19c-1 11 2 17 5 13 3-3 4-12 1-19zM284 47l11-9-15 5-15 4-2 19-3 19 7-15c3-8 11-19 17-23zm29 18 6-14-9-6c-6-4-10-4-10-1 0 2-3 11-6 20l-6 16h10c5 0 12-7 15-15zm571 6 6-9-15-5-14-6 6 15c6 16 10 17 17 5zm247-14-12-12 7 18c3 10 9 15 12 12s0-11-7-18zm124 13 6-10h-10c-5 0-13 5-16 10l-6 10h10c5 0 13-4 16-10zm266 1 9 14V48l-12 4c-6 2-13 10-14 16l-2 13 5-12 5-11 9 13zm203 1 5-8-22-1-22-2 15 9c18 12 18 12 24 2zM930 60c0-5-5-10-11-10h-10l6 10c3 6 8 10 11 10 2 0 4-4 4-10zm40 0c0-5-5-10-11-10h-10l6 10c3 6 8 10 11 10 2 0 4-4 4-10zm241-11 11-21-13 7-12 8 6-16c9-24 0-21-14 4l-11 21 13-7 12-8-6 16c-9 24 0 21 14-4zm1344 12 5-10-8-5-9-5v14c0 17 3 19 12 6zm315 4c0-1-7-5-15-8l-14-6-5 7-5 8 20 1c10 1 19 0 19-2zM633 35c-7-21-12-19-10 4l1 20 8-5 7-5-6-14zm1267 15c0-5-5-10-11-10h-10l6 10c3 6 8 10 11 10 2 0 4-4 4-10zm734 2 5-8-22-14-22-13 12 15 13 15-7 6-6 7h11c6 0 13-4 16-8zm76 4c0-2-7-7-16-10l-15-6 6 10c6 10 25 14 25 6zm64-4 5-9h-14c-8 0-15 4-15 9 0 10 17 10 24 0zm146-16c0-2-37 0-48 3-2 1 0 6 3 11l6 10 20-10c10-6 19-12 19-14zM855 32c-3-3-11 0-18 7l-12 12 18-7c10-3 15-9 12-12zm939 2 6-15-10 6c-6 3-10 10-10 16 0 14 7 11 14-7zM360 25l13 8-7-11c-4-7-14-12-22-12h-14v35l9-14 9-14 12 8zm1667 0V11l-9 5-8 5 5 10c9 13 12 11 12-6zm815-7-12-12v10c0 14 12 26 19 19 2-3-1-11-7-17zm145 0-5-13-1 19c-1 11 2 17 5 13 3-3 4-12 1-19zM280 20c0-5-2-10-4-10-3 0-8 5-11 10l-6 10h10c6 0 11-4 11-10zm300 6c0-2-7-7-16-10l-15-6 6 10c6 10 25 14 25 6zm2175-6 6-10h-10c-6 0-11 5-11 10 0 6 2 10 4 10 3 0 8-4 11-10zm-925 2400v-20l19 12c21 13 19 28-5 28h-14v-20zm726-7-7-18 12 12c7 7 10 15 7 18s-9-2-12-12zm114-93c0-5 5-10 10-10 6 0 10 5 10 10 0 6-4 10-10 10-5 0-10-4-10-10zm-1473-90 5-20 10 6 9 6-12 14c-16 19-18 18-12-6zM160 950c0-5 10-15 23-21l22-12-19 22c-21 23-26 26-26 11zm-52-77c6-2 18-2 25 0l12 5H95l13-5zm186-368-2-26 18 6 18 6 7-11c3-5 11-10 17-10h10l-12 15c-7 8-17 15-23 15-5 0-15 7-21 15l-11 15-1-25zm391-25c3-5 8-10 11-10 2 0 4 5 4 10 0 6-5 10-11 10h-10l6-10zM461 250l-23-20h12c18 0 50 20 50 30 0 15-12 11-39-10zm1216 2320-18-18 10-7 11-6-6-12-7-12 8 8c5 4 10 13 11 20s5 20 9 30c9 21 5 21-18-3zm317 1v-20l8 5c4 3 8 12 8 20s-4 14-8 14-8-9-8-19zm857 5-12-14 10-6 9-6 5 12 5 13 1-17 1-18h21l-12 23c-6 12-13 23-14 25-1 1-8-4-14-12zm54-10c1-12 7-30 13-41l11-20 1 18v17h-24l12 12c15 15 15 25-1 31l-13 5 1-22zm-2070 4-6-10h10c6 0 11 5 11 10 0 6-2 10-4 10-3 0-8-4-11-10zm532-10-5-18 11-11c6-6 15-11 21-11 5 0 1 7-10 15l-19 15 18-6 17-6v7c0 3-6 13-14 20l-14 14-5-19zm986 9c1-6-4-14-10-16l-13-5v22h-34l20-15 19-14-10-1h-10l14-9 15-9 13 25c16 30 16 33 3 33-5 0-9-5-7-11zm54 4c-3-5-2-15 2-22l9-13 7 12 7 12-10 10-10 10-5-9zm-1930-10c-4-3-7-11-7-17v-10l12 12c6 6 9 14 7 17-3 3-9 2-12-2zm673 0c5-2 10-9 10-15v-10l-16 6-17 6 13-15 12-15h47l-5-14-5-14 11-7 12-7 16 16 16 16h-35l6 10 6 10-8-1c-4-1-18-1-29 0l-22 1 2 16 1 17-13 3-12 3 10-6zm276-4 7-11-14-9-14-8 23 2c12 0 22 2 22 3 0 12-14 34-22 34h-9l7-11zm290 0c3-5 9-7 14-4 4 3 11 0 13-5l6-10-3 11c-1 7-10 13-19 15l-17 2 6-9zm309 0c4-6 10-8 13-5s11 1 19-6l14-11 10 10 11 11-11 6-11 7v-25l-12 12c-7 7-18 12-26 12h-13l6-11zm-1402-14v-14l9 5 8 5-5 10c-9 13-12 11-12-6zm117 6-14-10-10 6-9 6 7-11 7-12 20 10c10 6 19 13 19 15 0 7-3 6-20-4zm136-6c4-8 8-15 10-15s4 7 4 15-4 15-10 15h-9l5-15zm1410 0c4-8 11-15 16-15h10l-12 15c-7 8-14 15-16 15s-1-7 2-15zm-1046 1c0-8 31-36 41-36 5 0 9 5 9 11v10l-10-6-10-6-6 15c-5 14-24 23-24 12zm700-3c0-3 7-15 16-25l17-18-14-17-14-18 18 14 18 14-5 14-5 13h30l-6-10-6-10h20l-2 20-1 20h-13c-6 0-15-5-18-10l-6-10-10 6-9 5 5 10 6 9h-10c-6 0-11-3-11-7zm196 0c5-5 12-12 16-18l8-10v35h-33l9-7zm-562-12 6-9-10-5-10-5 12 2c6 1 14 8 16 14l4 12h-23l5-9zm532-6-5-15h9c6 0 10 7 10 15s-2 15-4 15-6-7-10-15zm640 2c3-10 9-15 12-12s0 11-7 18l-12 12 7-18zm-2096-6c0-6 4-13 10-16l10-6-6 15c-7 18-14 21-14 7zm33-6c0-8 4-15 9-15s7-4 4-8l-5-9h27l-2 15c-2 8-9 18-18 23l-15 8v-14zm1887 4v-10l10 6c6 3 10 8 10 11 0 2-4 4-10 4-5 0-10-5-10-11zm-2157-13c2-6 11-12 20-14l17-3-5 14c-3 7-13 14-21 14h-15l4-11zm1891-6c2-14 6-24 9-22 4 1 12 2 17 2 6 0 10 7 10 16v16l-14-5-15-6-5 12c-2 7-3 1-2-13zm593 5-6-14 10-7c6-3 13-3 16 0 4 3 1 6-5 6h-11l5 15c4 8 4 15 1 15s-7-7-10-15zm53 11c0-2 7-7 16-10l15-6-6 10c-6 10-25 14-25 6zm-2453-22c3-8 12-14 20-14h15l-4 12c-2 6-11 12-20 14l-17 2 6-14zm245 3-11-13 31-2c18-2 30-1 27 1-2 1-11 8-20 15l-16 12-11-13zm381-9-28-18h12c6 0 15 5 19 11l7 11 6-9 6-10 17 17 18 17h-15c-8 0-27-9-42-19zm1600 12 4-15 18 3 17 3-7-10-6-11h8c4 1 19 7 32 14l23 13-18 7-17 7-6-8c-8-11-34-10-44 2l-9 10 5-15zm-1463-14 10-10 10 10 10 10h-40l10-10zm479 12c0-2-2-13-3-25l-3-22 7 4c4 3 10 14 13 25l5 20h-9c-5 0-9-1-10-2zm1193-14-9-17-24 6-24 6 19-14c10-8 22-12 27-10l7 5-2-16c-1-8-9-20-17-25l-14-10 22 6 21 6 8-12 7-12-9 6c-6 3-16 2-23-2l-13-8 11-7 11-7v22l20-11 20-11v10c0 5-4 13-10 16-5 3-10 12-10 20v14l20-4 21-4-6 9-5 9-21-4-20-4 5 29c5 34 1 38-12 14zm-2733 4c0-2-2-11-4-20l-3-18h20l-5 14-6 15 12 5 12 4-12 1c-7 1-13 0-14-1zm1798-9c7-7 15-10 18-7s-2 9-12 12l-18 7 12-12zm-1347-13 10-10 10 10 10 10h-40l10-10zm188 7c7-3 16-2 19 1 4 3-2 6-13 5l-19-1 13-5zm-293-13-6-10h10c6 0 11 5 11 10 0 6-2 10-4 10-3 0-8-4-11-10zm185 0v-9l17 6 16 6-8-13-8-13 12 7 11 7-5 10c-8 12-35 12-35-1zm70 0c0-5 7-10 16-10h15l-6 10c-3 6-10 10-16 10-5 0-9-4-9-10zm2037-4-7-17-12 7-13 7 13-14 12-13 11 11c6 6 9 17 7 24l-4 13-7-18zm-2572-6-6-10h8c4 0 1-5-7-10l-15-10h11c6 0 17 6 23 14l12 14-10 6-10 6-6-10zm146-1-1-17 25-4 25-5v8c0 5-9 9-19 9h-19l-5 13-5 12-1-16zm203-17 1-17h-25c-14 0-31 4-37 9l-13 8v-11c0-10 13-15 33-12 4 0 7-4 7-10v-10l22 3 21 3 3 22 4 22-9 5-9 6 2-18zm-296 1c7-3 16-2 19 1 4 3-2 6-13 5l-19-1 13-5zm355-9v-13l16 8c9 5 23 11 31 14l15 6-31-2-31-1v-12zm557 7v-8h-27c-16 1-38-4-49-11l-21-11-8 7-8 7 6-11 7-12-16-12-15-13 12-8 12-7 21 11c12 7 29 18 39 26l17 14h45l45-1v35l-30 1-30 1v-8zm44-13-5-7-14 6c-21 7-19 12 4 10l20-1-5-8zm-130-33c-4-8-11-15-16-15h-10l12 15c7 8 14 15 16 15s1-7-2-15zm493 41-6-15 15 6c15 6 19 23 5 23-5 0-11-7-14-14zm279 6-5-9h14c8 0 15 4 15 9 0 4-4 8-9 8-6 0-12-4-15-8zm879-12c3-5 8-10 11-10 2 0 4 5 4 10 0 6-5 10-11 10h-10l6-10zm73 3c7-3 16-2 19 1 4 3-2 6-13 5l-19-1 13-5zm-2558-7c0-2 7-7 16-10l15-6-6 10c-6 10-25 14-25 6zm105-5c-2-4 10-8 26-9s29-1 29 2c0 7-50 13-55 7zm232 2c-4-3-7-11-7-17v-10l12 12c6 6 9 14 7 17-3 3-9 2-12-2zm161-5 12-12 12 12 12 12h-48l12-12zm2020 5c7-3 16-2 19 1 4 3-2 6-13 5l-19-1 13-5zm-2618-12c0-5-7-16-15-25l-15-15 19 2 20 1-6 9c-2 4 1 14 7 22l12 15h-11c-6 0-11-4-11-9zm2638-1-28-8v6c0 4-4 1-9-7l-9-15-16 13-16 13v-31l18-3 17-4 38 19c20 10 37 21 37 23s-1 4-2 3c-2 0-15-4-30-9zm-2738-7c-1-7-3-18-4-24 0-7-10-15-21-20l-20-8h17c9-1 19 3 22 8s14 8 24 6c9-1 12 0 5 2-6 2-14 14-16 26l-4 22-3-12zm204-13v-20l10 10 10 10-10 10-10 10v-20zm521 9c-4-6-4-13-1-16 3-4 6-1 6 5v11l15-5 15-6v22h-14c-8 0-18-5-21-11zm785 0v-10l10 6c6 3 10 8 10 11 0 2-4 4-10 4-5 0-10-5-10-11zm-1381-8 13-8-12-8-13-8 19-14 19-14-15-9-15-10h45v-9c0-6-4-12-9-16l-10-5-5 9-6 9-23-6-22-5 13 16 13 16-23 11-23 11 18-15 18-14-20-7-21-6 13-13 12-14 25 4 25 4-25-20-25-20h-63l-12-15c-7-8-17-15-22-15h-9l7 13 8 12-15-11c-8-6-21-14-29-18l-15-6 23 4 22 4v-9c0-5 7-9 16-9h15l-7-11-6-11 18 3c11 2 25 0 33-5l14-9-7 11-7 12 13 1h13l-20 8-20 8-6-9-6-9-12 14-11 14 12 10c7 6 34 13 60 16l47 6 4-7c2-4 2-1 1 5l-3 12 21 15 21 15 19-10 18-10v11c0 5-6 10-13 10h-13l-14 35-14 35h-27l5 9c3 5 14 8 24 6l17-2-12 4c-7 3-13 9-13 14s-8 9-17 9h-18l14-9zm101-1c0-5 5-10 11-10h10l-6 10c-3 6-8 10-11 10-2 0-4-4-4-10zm83 3 7-11-12-4-12-4 16-6 16-7-2 14c-1 8-6 18-11 22l-8 8 6-12zm2447-3c-8-5-24-11-34-15l-19-6 11-11 11-11 15 12 14 12 7-11c3-6 10-8 15-5l8 5 6-16 6-16-16 6-16 6 5-12 5-13 13 4c18 5 29 4 55-4l21-6v15c0 19-13 21-20 4l-5-13-1 19-1 18-15-6-15-6 10 19 10 20-33-4c-17-2-26-1-19 2 13 5 17 23 5 22-5 0-15-4-23-9zm-2397-15v-14l9 5 8 5-5 10c-9 13-12 11-12-6zm917-14c0-6 4-13 10-16l10-6-6 15c-7 18-14 21-14 7zm-1239-14c2-1 13-9 24-17l20-15-14 18c-7 9-18 17-24 17s-8-1-6-3zm-79-23-13-14h10c10 0 25 19 20 25-2 1-10-3-17-11zm233-4-6-10h10c5 0 13 5 16 10l6 10h-10c-5 0-13-4-16-10zm427 1-14-8 16-6 16-6v14c0 17-1 17-18 6zm-627-22-7-10-14 5-13 5-6-8-5-9 28-4 28-4 1 18c2 20-3 23-12 7zm228-30c-2-23 3-25 10-4l6 14-7 5-8 5-1-20zm27-28c0-6 9-15 20-21l20-11v10c0 6-9 15-20 21l-20 11v-10zm-30-12v-10l10 6c6 3 10 8 10 11 0 2-4 4-10 4-5 0-10-5-10-11zm22-38c7-9 17-19 23-23l10-7 8 15 8 14 11-6 11-7-5 14-5 14-36 1-37 1 12-16zm-277-1c-4-6-10-8-15-5l-8 5-6-16-6-15 9 5 9 6 12-15 13-15-17 6-17 7 7-29c9-36 14-43 14-18v19l30 1 30 1v-16l20 4 20 4v-10c0-5 3-9 8-9 4 0 8 14 8 30l2 30h-33l13-9 13-8-16-13-15-12v25l-34-6-34-5 4 34c4 34 0 43-11 24zm45-32c0-4 4-8 9-8 6 0 12 4 15 8l5 9h-14c-8 0-15-4-15-9zm206-36-6-10 16-6c19-7 34 1 34 17v12l-10-15-10-15-9 14-8 13-7-10zm-301-42c3-5 8-10 11-10 2 0 4 5 4 10 0 6-5 10-11 10H19l6-10zm17-136-2-25 9 5c5 4 8 13 7 21-4 25-12 25-14-1zm-32-14-15-10h26l-5-8-5-9h12c7 0 19-3 27-7l15-6 13 20 12 20H80c-6 0-13-7-16-15l-6-15-19 11-20 10 6 10c8 11 4 11-15-1zm42-149c4-13 18-16 19-4 0 4-5 9-11 12l-12 4 4-12zm-38-22-7-11 14-9 13-8 8 12c8 12 1 27-12 27-5 0-12-5-16-11zm-7-42-5-14 25 5 25 5-14 8c-18 12-25 11-31-4zm9-222-5-15h28l-5 15c-4 8-7 15-9 15s-5-7-9-15zM3 1284v-12l24 4 23 4v-9c0-5-5-13-12-17l-11-7 8 12 7 13-21-12-22-11 6-10 6-9 19 10c26 14 29 13 22-12l-5-21 10 6 10 7-1 22-2 23 11 7 10 8H59l5 9 6 9-33-1-34-1v-12zm0-159v-14l9 5c10 7 10 24 0 24-5 0-9-7-9-15zm19-428 17-11-20-28-20-28h23l5 20 5 20 11-7 10-6-7 11-7 12h25l-20 15c-10 8-23 14-29 14H5l17-12zM0 600c0-5 5-10 11-10h10l-6 10c-3 6-8 10-11 10-2 0-4-4-4-10zm27-92-6-23 14 19 14 19 21-6 20-5v18H32l-5-22zm40-128-5-20 20 14 19 14 20-5 19-5v22H72l-5-20zm203-105v-14l-15 5-15 6v-9c0-5 3-13 7-16l6-7 14 11c7 6 13 8 13 4s7-2 15 5c20 17 19 25-5 27l-20 2v-14zm-72-52-28-14v-33l13 17 12 17 23-6c12-4 22-11 22-16v-9l-12 7-13 7 7-8c5-5 19-10 33-11l25-3v9c0 4-7 11-16 14l-16 6 5 14 6 14-17 4-17 4-27-13zM25 199c-9-14-2-20 14-10l13 9-10 6-11 6-6-11zm270-9c3-5 8-10 11-10 2 0 4 5 4 10 0 6-5 10-11 10h-10l6-10zm-175-23v-17H99l6-10c3-5 11-10 16-10h10l-5 9-6 9 12 5 13 5-12 13-13 13v-17zm-82-34c7-3 16-2 19 1 4 3-2 6-13 5l-19-1 13-5z"/>
    </g>
    <g fill="#b8bec3" transform="matrix(.1 0 0 -.1 0 300)">
      <path d="M2164 2151c-22-10-56-32-76-50l-35-31-23-52-22-51v-118l27-54 26-55 37-30 36-30 49-16 49-16 52 4 51 4 39 19c46 22 99 72 123 118l18 32v170l-18 33c-10 18-36 50-58 72l-40 38-46 16-47 16h-101l-41-19zm76-61v-40h-61l12 23c12 22 39 57 46 57 1 0 3-18 3-40zm79 6c27-43 27-46-9-46h-30v80h9c5 0 19-15 30-34zm-167-16-17-30h-20l-20 1 33 29c41 38 45 38 24 0zm262-9 19-21h-49l-11 30-11 30 17-9c9-5 25-19 35-30zm-293-103-6-43-37-3-36-3 8 34c4 19 10 40 14 46l7 11h55l-5-42zm119-4v-45l-42 3-43 3 3 30c1 17 5 36 7 43l4 12h71v-46zm124 24c3-13 6-33 6-45v-23h-90v90h78l6-22zm106-4c6-14 10-34 10-45v-19h-70v23c0 12-3 32-6 45l-6 22h62l10-26zm-348-134 4-40h-55l-11 19c-5 11-10 29-10 40v21h68l4-40zm118 0v-40h-71l-3 13c-3 6-7 24-10 40l-6 27h90v-40zm130 23c0-10-3-28-6-40l-6-23h-78v80h90v-17zm110 3c0-8-4-26-10-40l-10-26h-62l6 23c3 12 6 30 6 40v17h70v-14zm-327-136 15-30-16 9c-10 5-26 19-36 30l-19 21h42l14-30zm87-11v-41l-16 13c-8 7-22 25-30 41l-15 28h61v-41zm104 29c-21-36-46-68-55-68h-9v80h71l-7-12zm70-9c-10-11-27-25-37-31l-18-9 16 30 16 31h42l-19-21zm-754 286-12-14 4-18 3-18 72-3 71-3 10-12c5-7 44-124 87-262 83-267 104-318 135-335l19-10-10-24-11-23 16-31 16-32 26-6 25-7 25 12 24 11 11 27 10 27-10 23-11 23h210l-10-26-10-26 12-26 13-27 27-9 27-10 26 12 25 12 11 27 10 27-10 23-10 22 32 3 32 3v60l-240 3-240 2-12 19-11 18 245 7c134 4 251 10 258 12 7 3 18 17 23 32 15 39 82 319 82 342v19l-19 11c-11 5-33 10-50 10h-31v-20c0-10-9-44-20-74l-21-54-40-42-41-42-44-19c-24-11-66-23-92-26l-49-5-54 16-55 15-42 31-41 30-31 52-30 53-6 38-7 37h-65l-21 62c-11 33-28 69-37 80l-17 18h-165l-12-15zM390 1575v-275h110v550H390v-275zm220 0v-275h100l2 182 3 183 79-139 79-139 14 18c7 11 44 73 81 138l67 119 3-181 2-181h110v550h-62l-63-1-74-130-73-131-17 29c-10 15-43 74-75 131l-58 102H610v-275zm640 0v-276l53 3 52 3 5 180 5 179 133-182 133-182h89v550h-100l-2-174-3-174-125 171-126 172-57 3-57 3v-276zm1183-419-31-14-18-27-17-27v-85l19-26c24-33 55-47 103-47h38l27 21 28 22-15 14-14 14-37-17-36-18-28 21-27 20-3 36-3 36 20 20 21 21h23c12 0 32-7 44-15l20-14 18 19 17 18-25 17c-14 9-40 18-58 21l-34 4-32-14zM443 1053c-24-60-43-112-43-116s11-7 25-7h25l6 25 6 25h88l12-25 11-25h47l-1 13c0 6-19 57-42 112l-42 100-25 3-25 3-42-108zm84 2 11-35h-60l7 18c4 9 10 25 12 35 8 27 19 20 30-18zm145 15 4-90 24-25 23-25h84l27 21 26 20v189h-50V991l-20-11-20-11-19 10c-26 14-31 32-31 112v69h-52l4-90zm258 70v-20h70V930h50v190h60v40H930v-20zm260-95V930h50v90h90v-90h50v230h-50v-90h-90v90h-50v-115zm280 0V930h160v40h-110v60h90v40h-90v50h100v40h-150v-115zm240 0V930h50v144l51-72 50-72h49v230h-49l-3-71-3-72-49 72-49 71h-47v-115zm270 95v-20h70V930h50v190h60v40h-180v-20zm260-95V930h50v230h-50v-115z"/>
    </g>
    <g fill="#808d97" transform="matrix(.1 0 0 -.1 0 300)">
      <path d="M2191 2159c-78-24-150-95-171-170-6-19-10-56-10-84v-50l21-45c25-55 71-105 124-133l40-22 70 1h70l40 21c47 25 95 74 121 123l19 35v150l-19 35c-26 49-74 98-120 122l-40 20-55 4-56 3-34-10zm49-74v-45h-60v14c0 13 46 76 56 76 2 0 4-20 4-45zm85 8c14-21 25-41 25-45v-8h-70v90h10c5 0 21-17 35-37zm-172-18-17-35h-46v9c0 10 60 61 72 61 4 0 0-16-9-35zm265-5c28-26 28-30-3-30h-24l-16 30c-8 16-15 32-15 35 0 9 32-11 58-35zm-292-76c-3-9-6-29-6-45v-29h-80v8c0 4 5 24 11 45l10 37h71l-6-16zm122-26-3-43-47-3-48-3v14c0 8 3 29 6 46l7 31h88l-3-42zm116 26c3-9 6-29 6-45v-29h-90v90h78l6-16zm110-11c4-16 9-36 12-45l5-18h-78l-7 31c-3 17-6 38-6 45v14h68l6-27zm-354-117c0-13 3-31 6-40l6-16h-71l-6 23c-4 12-9 30-11 40l-5 17h81v-24zm130-16v-40h-90v9c0 5-3 23-6 40l-6 31h102v-40zm118 3-3-38-42-3-43-3v81h91l-3-37zm110-3-10-40h-68v18c0 9 3 27 6 40l6 22h76l-10-40zm-325-105c9-19 14-35 11-35-10 0-74 52-74 61v9h46l17-35zm95-14 3-43-13 4c-14 5-58 65-58 80v9l33-3 32-3 3-44zm102 40c0-14-44-74-57-79l-13-4v92h70v-9zm57-27c-21-20-41-34-43-31-2 2 3 18 12 35l15 32h27l27-1-38-35zm-748 290-13-16 11-16 10-17 71-3 70-3 10-27c6-15 46-137 88-272 79-253 97-296 125-305l16-6-4-43-5-43 27-21c35-27 45-27 80 0l27 21-5 39-5 38h204l-4-39-4-38 27-22c35-26 45-26 80 0l27 22-4 38-3 38 24 3 24 3 10 17 11 16-13 16-13 16h-467l-11 19c-5 11-10 22-10 25s112 6 248 6h249l15 18 16 17 42 173 42 173-18 20-18 20-29-3-30-3-13-53-14-53-31-46-31-45-46-29c-81-51-156-61-248-34l-50 15-41 35c-51 43-83 94-99 155l-11 45-33 5-33 5-22 64-21 63-19 14-19 14h-154l-13-16zM392 1578l3-273h100l3 273 2 272H390l2-272zm218-3v-275h100v375l47-80c25-44 62-108 83-142l36-63 80 137 79 137 5-179 5-180h100l3 273 2 273-61-3-62-3-68-119c-37-65-72-123-77-128l-9-9-74 130-74 131H610v-275zm640 5v-270h100v360h8c4-1 27-29 52-63s85-117 135-184l89-123h86v550h-100l-2-177-3-176-129 176-128 177h-108v-270zm1194-426c-21-8-40-14-41-14s-9-13-18-30l-15-29v-81l28-31 28-31 47-5 47-6 25 17c27 18 33 41 12 49l-13 5-19-14c-10-8-29-14-42-14h-23l-20 20-20 20v77l18 16 19 17h56l17-15 17-16 13 16 13 16-14 15c-8 8-29 18-45 23l-31 9-39-14zm-1957-1c-7-11-87-212-87-218 0-3 9-5 20-5h20l12 25 11 25h97l6-25 6-25h49l-7 22c-3 12-24 63-44 112l-38 91-20 3c-11 2-22-1-25-5zm38-89c19-47 20-44-16-44h-31l6 16c3 9 9 27 12 40 8 32 11 31 29-12zm155 6v-91l25-24 24-25h82l24 25 25 24v181h-40v-146l-16-22-15-22h-18c-10 0-25 8-34 18l-17 19v153h-40v-90zm252 73 3-18 33-3 32-3V930h50v190h60v40H929l3-17zm258-98V930h39l3 48 3 47 48 3 47 3V929l23 3 22 3 3 113 3 112h-51v-90h-100v90h-40v-115zm280 0V930h160v40h-110v60h91l-3 18-3 17-43 3-42 3v49h100v40h-150v-115zm240-1V929l23 3 22 3 5 69 5 69 49-72 49-71h37v230h-39l-3-72-3-73-50 72-50 72-22 1h-23v-116zm280 96v-20h60V930h50v190h60v40h-170v-20zm250-95V930h50v230h-50v-115z"/>
    </g>
    <g fill="#415464" transform="matrix(.1 0 0 -.1 0 300)">
      <path d="M2205 2161c-70-18-134-71-171-141l-19-35v-150l22-41c26-48 83-101 132-121l36-15h120l48 22 48 22 34 41 35 41 15 50c19 62 19 90 0 152l-15 50-35 41-35 41-43 21-42 20-50 5-50 5-30-8zm45-76v-45h-81l12 23c25 47 42 67 55 67h14v-45zm78 5c12-18 22-37 22-41v-9h-70v92l13-4c6-3 22-19 35-38zm-170-10-20-40h-48v9c0 10 70 71 81 71 4 0-2-18-13-40zm250 3c17-13 32-28 32-34v-9h-56l-14 33c-7 17-16 36-18 41l-5 9 14-8c8-4 29-19 47-32zm-282-95c-3-13-6-33-6-45v-23h-82l7 37c9 51 11 53 52 53h35l-6-22zm124-23v-45h-100v23c0 12 3 32 6 45l6 22h88v-45zm114 33c3-7 7-28 10-45l6-33h-100v90h81l3-12zm115-25c6-21 11-41 11-45v-8h-88l-4 45-3 45h74l10-37zm-359-100c0-10 3-28 6-40l6-23h-70l-11 31c-6 18-11 36-11 40v9h80v-17zm130-23v-40h-88l-6 23c-3 12-6 30-6 40v17h100v-40zm126 24c-3-9-6-27-6-40v-24h-90v80h102l-6-16zm110-4c-3-11-9-29-12-40l-5-20h-69v80h91l-5-20zm-326-131 21-40-23 12c-29 14-68 50-68 61 0 4 11 8 25 8h25l20-41zm90-4v-45h-8c-11 0-47 39-61 68l-12 22h81v-45zm100 33c0-15-49-78-61-78h-9v90h70v-12zm90 3c0-9-46-47-77-65l-12-6 17 40 17 40h55v-9zm-773 264-17-16 10-19 10-19 72-3 72-3 91-283 90-284 27-23 27-23-6-36-6-36 18-20 18-20h64l16 18 17 19v22c0 12-5 31-10 42l-11 19h232l-11-19c-5-11-10-31-10-44v-24l18-16 19-17h60l18 20 18 19-7 39-6 40h26c14 0 31 5 37 11l12 12-11 17-11 17h-460l-16 14c-10 7-17 20-17 27v14h500l14 23 15 22 39 165 39 165-9 18-9 18-36-3-36-3-11-45c-16-60-48-112-98-154l-41-35-50-17-50-16-66 4-66 5-40 21c-74 38-142 127-160 210l-7 32h-64l-17 58c-9 32-23 67-31 78l-14 19-79 3-80 4-16-17zM400 1580v-270h90v540h-90v-270zm210 0v-270h100l2 181 3 181 79-137 79-138 13 18c7 9 46 74 86 144l73 126 3-187 2-188h90v540h-108l-77-135-78-136-76 133-77 133-57 3-57 3v-271zm649 266c-2-2-3-124-1-270l3-266h89l2 187 3 187 136-185 135-184 47-3 47-3v542l-47-3-48-3-5-175-5-175-130 178-130 177h-46c-25 0-48-2-50-4zm-769-689c0-1-20-52-45-111-25-60-45-111-45-113s9-3 19-3h20l13 28 13 27 42 3 42 3 16-30 16-31h41l-5 13c-3 6-24 58-47 115l-43 102h-18c-11 0-19-1-19-3zm34-81c3-13 9-31 12-40l6-16h-31c-35 0-36 1-19 47 14 39 24 42 32 9zm156 0c0-100 4-112 41-131 34-18 60-19 92-4l25 11 11 25 11 24v159h-40v-159l-16-15-15-16h-48l-11 19-10 20v151h-40v-84zm260 64v-20h60V930h40v190h70v40H940v-20zm250-95V930h40v100h100V930h40v230h-40v-90h-100v90h-40v-115zm280 0V929l77 3 78 3 3 18 3 17h-121v60h90v40h-90v50h110v40h-150v-115zm240 0V930h40v152l13-10c7-6 33-41 58-77l44-65h35v230h-40v-154l-56 77-55 77h-39v-115zm280 95v-20h60V930h40v190h70v40h-170v-20zm250-95V930h40v230h-40v-115zm164 81-34-34v-35c0-20 4-47 10-61l10-26 32-20 33-20h28c30 0 87 25 87 38 0 5-5 13-11 19l-11 11-28-16-28-16-29 10-28 9-14 29-14 29 9 25c5 14 21 34 37 46l28 20 35-19 35-18 12 12 12 12-24 20-23 19h-90l-34-34z"/>
    </g>
    <g fill="#041c32" transform="matrix(.1 0 0 -.1 0 300)">
      <path d="m2152 2138-43-20-35-41-35-41-16-55-15-54 6-45 6-44 27-50 27-50 31-24c17-13 48-30 68-39l36-15h119l52 28 53 27 33 48 33 47 11 55 11 55-15 53-15 53-30 41-29 40-53 27-53 26h-65l-66-1-43-21zm98-48v-50h-40c-22 0-40 3-40 6 0 22 57 91 78 94 1 0 2-22 2-50zm84-1c9-15 16-32 16-38v-11h-70v100l19-12c10-6 26-24 35-39zm-174-9-20-40h-33l-32 1 42 39c23 22 47 40 53 40h10l-20-40zm251 0 44-39-36-1h-35l-17 35c-9 20-17 38-17 40 0 13 22 1 61-35zm-281-84c0-7-3-28-6-45l-6-31h-78v19c0 11 4 31 10 45l10 26h70v-14zm120-31v-45h-100v29c0 16 3 36 6 45l6 16h88v-45zm124 14c3-17 6-38 6-45v-14h-110v90h98l6-31zm100 23c2-4 7-24 11-45l7-37h-92v29c0 16-3 36-6 45l-6 16h40c23 0 43-3 46-8zm-350-134c3-13 6-31 6-40v-18h-70l-10 26c-6 14-10 32-10 40v14h78l6-22zm126-18v-40h-88l-6 16c-3 9-6 27-6 40v24h100v-40zm130 31c0-5-3-23-6-40l-6-31h-98v80h110v-9zm110 0c0-4-5-22-11-40l-11-31h-74l4 40 4 40h88v-9zm-328-141 17-40h-8c-5 0-28 18-52 40l-44 39h35l35 1 17-40zm88-10v-51l-19 10c-19 10-43 43-54 74l-6 17h79v-50zm88 9c-12-22-31-45-40-50l-18-10v101h81l-23-41zm73 1c-39-36-69-52-59-32 3 4 10 22 17 40l13 32h36l37-1-44-39zm-751 276v-23l71-5 70-5 10-10c6-6 48-131 95-279s91-279 99-291 24-24 35-28c22-7 26-20 10-30-5-3-10-17-10-31v-24l20-20 20-20h50l21 21 21 21-5 21c-2 12-8 30-12 40l-7 17h234l-7-17c-4-10-10-28-12-40l-5-21 21-21 21-21h50l20 20 20 20v24c0 14-4 28-10 31-5 3-10 10-10 16v9h68l4 13c3 6 3 18 1 25l-5 12h-463l-11 8c-6 4-16 17-23 30l-12 22h497l18 13 17 13 40 164 40 165-3 25-3 25-37 3-36 3-7-33c-12-54-44-114-83-154l-36-37-54-24-53-25-57-1h-57l-53 17-52 18-49 47-48 47-21 57c-12 32-22 64-22 72v15h-66l-18 58c-10 31-25 65-34 75l-15 17h-177v-24zM400 1580v-270h90v540h-90v-270zm1230 89v-181l-9 4c-6 2-67 81-136 176l-126 172h-99v-530h90v371l9-6c6-3 69-86 141-185l132-180h88v540h-90v-181zm-1020-94v-265h100v375l81-140c44-77 82-141 84-143 1-1 37 58 80 133 42 74 81 138 86 141l9 5v-371h90v531l-56-3-56-3-70-120c-38-66-73-123-77-128l-7-7-75 130-74 130H610v-265zm-153-507c-20-51-39-101-43-110l-6-18h32l12 25 11 25h97l6-25 6-25h40l-6 18c-4 9-23 59-43 110l-36 92h-34l-36-92zm71 3c16-52 16-51-22-51h-34l17 45c9 25 19 45 22 45s11-17 17-39zm152 5v-85l24-28 24-28h82l22 23 23 23v174l-17 3-18 3V994l-12-12c-7-7-24-12-38-12s-31 5-38 12l-12 12v166h-40v-84zm260 70v-15l33-3 32-3 3-92 3-93h28l3 93 3 92 33 3 32 3v29H940v-14zm250-96V940h40v90h100v-90h40v220h-40v-100h-34c-19 0-41 3-50 6l-16 6v88h-40v-110zm288 0 3-110h139v30h-110v60h90v30h-91l3 33 3 32 53 3 52 3v29h-145l3-110zm232 0V940h39l3 76 3 77 54-77 54-76h37v220h-39l-3-77-3-77-53 77-53 77h-39v-110zm280 96v-15l33-3 32-3 3-92 3-93h28l3 93 3 92 33 3 32 3v29h-170v-14zm260-96V940h30v220h-30v-110zm178 94-28-15-15-29c-29-55-10-123 43-152l24-13 39 1 40 1 20 18 19 19-9 9-9 9-20-11c-11-6-34-11-51-11h-30l-20 26-21 27v58l25 24 24 25h24c13 0 32-6 42-14l19-14 13 5c21 8 15 21-17 38-36 19-77 19-112-1z"/>
    </g>
  </g>
</svg>